<svg data-v-51ca4166="" xmlns="http://www.w3.org/2000/svg" version="1.1"><svg data-v-51ca4166="" x="0" y="0" width="1mm" height="1mm" overflow="visible" viewBox="0 0 1 1"><path data-v-51ca4166="" id="svg-bleed" transform="translate(-3,-3)" stroke-width="0.9090669686464047" stroke="#999999" fill="none" d=" M20,0  L627.9,0  L627.9,286.9  L588.0999999999999,327.2  L558.1682079791376,327.2  L545.8,307.04999999999995  L545.8,347.2  Q545.8,351.2,541.8,351.2  L525.5,351.2  L501.49999999999994,327.2  L437.5,327.2  L437.5,330.0284271247462  L417.5,351.2  L327.738032401191,351.2  L322.2,296.2137084989847  L286.9,327.2  L256.9682079791377,327.2  L244.6,307.04999999999995  L244.6,347.2  Q244.6,351.2,240.6,351.2  L224.3,351.2  L200.3,327.2  L136.3,327.2  L136.3,330.0284271247462  L116.30000000000001,351.2  L22,351.2  Q20,351.2,20,349.2  L20,286.9  Z "></path><g data-v-51ca4166=""><path data-v-51ca4166="" stroke-width="0.9090669686464047" stroke="#999999" fill="none" d=" M20,0  L621.9,0  L621.9,280.9  L582.0999999999999,321.2  L557.1682079791376,321.2  L542.7396926207858,281.5579798566743  Q542.5002075382097,280.9,541.8,280.9  Q541.3857864376268,280.9,541.0928932188134,281.1928932188134  L535.9663690552109,286.38007755419574  L539.8,290.2137084989847  L539.8,341.2  Q539.8,345.2,535.8,345.2  L525.5,345.2  L501.49999999999994,321.2  L431.5,321.2  L431.5,323.5431457505076  Q431.5,325.2,430.3284271247462,326.3715728752538  L411.5,345.2  L327.738032401191,345.2  L322.2,281.9  Q322.2,280.9,321.2,280.9  Q320.7857864376269,280.9,320.49289321881344,281.1928932188134  L280.9,321.2  L255.96820797913765,321.2  L241.5396926207859,281.5579798566743  Q241.3002075382097,280.9,240.6,280.9  Q240.1857864376269,280.9,239.89289321881344,281.1928932188134  L234.766369055211,286.38007755419574  L238.6,290.2137084989847  L238.6,341.2  Q238.6,345.2,234.6,345.2  L224.3,345.2  L200.3,321.2  L130.3,321.2  L130.3,323.5431457505076  Q130.3,325.2,129.1284271247462,326.3715728752538  L110.30000000000001,345.2  L26.53803240119099,345.2  L21,281.9  Q21,280.9,20,280.9  L0,260.18939372418856  L0,5.358983848622454  L20,0  Z " class="svg-cutting"></path></g><g data-v-51ca4166=""><g data-v-51ca4166=""><line data-v-51ca4166="" stroke-width="0.9090669686464047" stroke="#999999" stroke-dasharray="2.727200905939214 1.8181339372928094" x1="20" y1="0" x2="20" y2="280.9"></line><!----></g><g data-v-51ca4166=""><line data-v-51ca4166="" stroke-width="0.9090669686464047" stroke="#999999" stroke-dasharray="2.727200905939214 1.8181339372928094" x1="240.6" y1="0" x2="240.6" y2="280.9"></line><!----></g><g data-v-51ca4166=""><line data-v-51ca4166="" stroke-width="0.9090669686464047" stroke="#999999" stroke-dasharray="2.727200905939214 1.8181339372928094" x1="321.2" y1="0" x2="321.2" y2="280.9"></line><!----></g><g data-v-51ca4166=""><line data-v-51ca4166="" stroke-width="0.9090669686464047" stroke="#999999" stroke-dasharray="2.727200905939214 1.8181339372928094" x1="541.8" y1="0" x2="541.8" y2="280.9"></line><!----></g><g data-v-51ca4166=""><line data-v-51ca4166="" stroke-width="0.9090669686464047" stroke="#999999" stroke-dasharray="2.727200905939214 1.8181339372928094" x1="20" y1="280.9" x2="240.6" y2="280.9"></line><!----></g><g data-v-51ca4166=""><line data-v-51ca4166="" stroke-width="0.9090669686464047" stroke="#999999" stroke-dasharray="2.727200905939214 1.8181339372928094" x1="240.6" y1="280.9" x2="321.2" y2="280.9"></line><!----></g><g data-v-51ca4166=""><line data-v-51ca4166="" stroke-width="0.9090669686464047" stroke="#999999" stroke-dasharray="2.727200905939214 1.8181339372928094" x1="541.8" y1="280.9" x2="621.9" y2="280.9"></line><!----></g><g data-v-51ca4166=""><line data-v-51ca4166="" stroke-width="0.9090669686464047" stroke="#999999" stroke-dasharray="2.727200905939214 1.8181339372928094" x1="321.2" y1="280.9" x2="541.8" y2="280.9"></line><!----></g><g data-v-51ca4166=""><line data-v-51ca4166="" stroke-width="0.9090669686464047" stroke="#999999" stroke-dasharray="2.727200905939214 1.8181339372928094" x1="200.3" y1="321.2" x2="234.94314575050763" y2="286.55685424949235"></line><!----></g><g data-v-51ca4166=""><line data-v-51ca4166="" stroke-width="0.9090669686464047" stroke="#999999" stroke-dasharray="2.727200905939214 1.8181339372928094" x1="501.49999999999994" y1="321.2" x2="536.1431457505075" y2="286.55685424949235"></line><!----></g><g data-v-51ca4166=""><line data-v-51ca4166="" stroke-width="0.9090669686464047" stroke="#999999" stroke-dasharray="2.727200905939214 1.8181339372928094" x1="280.9" y1="0" x2="280.9" y2="240.59999999999997"></line><!----></g><g data-v-51ca4166=""><line data-v-51ca4166="" stroke-width="0.9090669686464047" stroke="#999999" stroke-dasharray="2.727200905939214 1.8181339372928094" x1="280.9" y1="240.59999999999997" x2="240.6" y2="280.9"></line><!----></g><g data-v-51ca4166=""><line data-v-51ca4166="" stroke-width="0.9090669686464047" stroke="#999999" stroke-dasharray="2.727200905939214 1.8181339372928094" x1="280.9" y1="240.59999999999997" x2="321.2" y2="280.9"></line><!----></g><g data-v-51ca4166=""><line data-v-51ca4166="" stroke-width="0.9090669686464047" stroke="#999999" stroke-dasharray="2.727200905939214 1.8181339372928094" x1="581.8499999999999" y1="0" x2="581.8499999999999" y2="240.59999999999997"></line><!----></g><g data-v-51ca4166=""><line data-v-51ca4166="" stroke-width="0.9090669686464047" stroke="#999999" stroke-dasharray="2.727200905939214 1.8181339372928094" x1="581.8499999999999" y1="240.59999999999997" x2="541.8" y2="280.9"></line><!----></g><g data-v-51ca4166=""><line data-v-51ca4166="" stroke-width="0.9090669686464047" stroke="#999999" stroke-dasharray="2.727200905939214 1.8181339372928094" x1="581.8499999999999" y1="240.59999999999997" x2="621.9" y2="280.9"></line><!----></g></g><g data-v-51ca4166=""><path data-v-51ca4166="" stroke-width="0.9090669686464047" stroke="#999999" d=" M72.8,20  A2.5,2.5 0 0,1 77.8,20  A2.5,2.5 0 0,1 72.8,20  Z " style="fill: rgb(255, 255, 255);"></path><path data-v-51ca4166="" stroke-width="0.9090669686464047" stroke="#999999" d=" M182.8,20  A2.5,2.5 0 0,1 187.8,20  A2.5,2.5 0 0,1 182.8,20  Z " style="fill: rgb(255, 255, 255);"></path><path data-v-51ca4166="" stroke-width="0.9090669686464047" stroke="#999999" d=" M374,20  A2.5,2.5 0 0,1 379,20  A2.5,2.5 0 0,1 374,20  Z " style="fill: rgb(255, 255, 255);"></path><path data-v-51ca4166="" stroke-width="0.9090669686464047" stroke="#999999" d=" M484,20  A2.5,2.5 0 0,1 489,20  A2.5,2.5 0 0,1 484,20  Z " style="fill: rgb(255, 255, 255);"></path></g></svg></svg>
