<svg xmlns="http://www.w3.org/2000/svg" width="37" height="50"><g fill="none" fill-rule="evenodd" stroke="#0271E3" stroke-linecap="round" stroke-linejoin="round"><path stroke-width=".5" d="M3.851 5.943c.001.09-.064.173-.153.194a.205.205 0 0 1-.173-.035.2.2 0 0 1 .173-.354.202.202 0 0 1 .153.195ZM3.912 3.597a.26.26 0 0 0-.199-.253.267.267 0 0 0-.23.05.26.26 0 0 0 .23.456.265.265 0 0 0 .2-.253ZM6.855 4.77a.693.693 0 0 0-.53-.674.702.702 0 0 0-.877.68.706.706 0 0 0 1.259.421.693.693 0 0 0 .148-.427Z"/><path stroke-width=".5" d="M3.267 1.832h30.565a1.438 1.438 0 0 1 .855.293 1.415 1.415 0 0 1 .556 1.118v.483a.173.173 0 0 0 .113.156.175.175 0 0 0 .238-.163c.003-.06 0-.502 0-.555a1.754 1.754 0 0 0-.425-1.065 1.782 1.782 0 0 0-1.293-.615c.01-.01-30.596.006-30.608 0a1.776 1.776 0 0 0-1.489.797 1.75 1.75 0 0 0-.287.864c0 .031-.004.066-.003.098v.495a.173.173 0 0 0 .128.149.178.178 0 0 0 .145-.022.174.174 0 0 0 .079-.136v-.486c-.002-.014.001-.033 0-.047a1.42 1.42 0 0 1 .176-.633 1.431 1.431 0 0 1 1.25-.731ZM19.167 46.69a.337.337 0 0 1 .258-.329.342.342 0 0 1 .426.325.342.342 0 0 1-.684.003ZM17.916 46.69a.337.337 0 0 0-.258-.329.342.342 0 0 0-.426.325.342.342 0 0 0 .684.003ZM18.884 46.69a.337.337 0 0 0-.258-.329.342.342 0 0 0-.426.325.342.342 0 0 0 .684.003ZM20.444 23.25a1.431 1.431 0 0 1 .142-.642c.13-.264.336-.49.583-.65l.026-.016a1.53 1.53 0 0 0-.442-.426 1.717 1.717 0 0 0-.83-.256c-.206-.021-.413.02-.609.083-.188.058-.41.163-.6.214a.497.497 0 0 1-.127.018.956.956 0 0 1-.291-.071l-.286-.11a1.794 1.794 0 0 0-.449-.113 1.507 1.507 0 0 0-.44.033c-.357.078-.682.278-.918.551-.16.185-.28.404-.359.635-.314.934-.006 2.111.494 2.934.14.22.294.436.465.632.15.165.326.323.546.384a.828.828 0 0 0 .42-.01c.114-.027.265-.096.374-.14.248-.104.52-.136.786-.087.15.026.306.097.445.156.08.033.165.063.251.078.114.021.232.025.346.002.366-.075.609-.39.816-.674.24-.327.442-.69.571-1.076l.02-.058-.013-.005a1.584 1.584 0 0 1-.712-.618c-.14-.23-.208-.5-.21-.768M18.538 21.182c.21.016.42-.043.604-.14.26-.139.472-.36.61-.617a1.42 1.42 0 0 0 .178-.828 1.377 1.377 0 0 0-.566.166 1.545 1.545 0 0 0-.59.53c-.168.26-.277.576-.236.889Z"/><path stroke-width=".5" d="M4.645 5.943a.99.99 0 0 1-.752.956.995.995 0 0 1-1.241-.948.995.995 0 0 1 1.241-.964.99.99 0 0 1 .752.956Z"/><path stroke-width=".5" d="M4.499 5.943a.844.844 0 0 1-.642.815.85.85 0 0 1-1.059-.808.849.849 0 0 1 1.06-.822.844.844 0 0 1 .64.815ZM4.645 3.597a.99.99 0 0 0-.752-.955.995.995 0 0 0-1.241.947.995.995 0 0 0 1.241.964.99.99 0 0 0 .752-.956Z"/><path stroke-width=".5" d="M4.499 3.597a.844.844 0 0 0-.642-.815.85.85 0 0 0-1.059.808.849.849 0 0 0 1.06.823.844.844 0 0 0 .64-.816ZM6.533 3.2a.376.376 0 0 0-.288-.366.38.38 0 0 0-.475.362.38.38 0 0 0 .763.003ZM6.386 6.31a.23.23 0 0 0-.177-.225.237.237 0 0 0-.204.044.232.232 0 0 0 .003.365.237.237 0 0 0 .329-.042.23.23 0 0 0 .05-.142Z"/><path stroke-width=".5" d="M2.339 6.027A1.191 1.191 0 0 0 3.54 7.216h2.54c.173 0 .346-.037.503-.11.424-.19.701-.619.7-1.08V3.514c-.002-.01 0-.03-.001-.04a1.185 1.185 0 0 0-.288-.732 1.211 1.211 0 0 0-.913-.417H3.54a1.222 1.222 0 0 0-.843.341 1.188 1.188 0 0 0-.358.787c0 .018-.002.043-.001.061v2.514Z"/><path stroke-width=".5" d="M2.173 6.027c-.002.541.333 1.04.839 1.248.166.07.348.105.529.105h2.564a1.386 1.386 0 0 0 1.016-.473 1.35 1.35 0 0 0 .327-.81l.002-.07V3.514a1.352 1.352 0 0 0-.299-.844 1.378 1.378 0 0 0-1.07-.51h-2.54a1.394 1.394 0 0 0-.304.034 1.352 1.352 0 0 0-1.062 1.25c-.001.02-.003.049-.002.07v2.513ZM3.16 1.1V1H5.7v.098M1 6.979h1v2.03H1zM1 4.512h1v2.03H1z"/><path stroke-width=".5" d="M33.816 48.97a2.175 2.175 0 0 0 1.955-1.216c.14-.289.215-.61.215-.931V3.206l-.002-.037-.001-.037-.003-.037a2.138 2.138 0 0 0-.21-.783 2.175 2.175 0 0 0-1.879-1.214c-.11-.01-30.545.004-30.661 0h-.038l-.037.002-.037.002-.038.003a2.189 2.189 0 0 0-1.014.351 2.156 2.156 0 0 0-.963 1.639c-.093.035.056 43.653-.005 43.728v.037l.001.037.002.037.002.037a2.137 2.137 0 0 0 1.19 1.769 2.202 2.202 0 0 0 .862.226c.043.103 30.592-.068 30.661.003Z"/><path stroke-width=".5" d="M5.7 1.097h28.164l.025.001.024.001.024.001a2.224 2.224 0 0 1 .851.224c.465.23.84.629 1.035 1.104.092.22.146.457.16.695.051.014-.031 43.649.003 43.7-.001.037-.001.082-.004.12a2.13 2.13 0 0 1-.956 1.66 2.19 2.19 0 0 1-1.21.366c-.018.007-30.556-.005-30.573 0-.046-.001-.1-.002-.146-.007a2.21 2.21 0 0 1-.899-.272 2.137 2.137 0 0 1-1.092-1.675c-.002-.047-.008-.097-.008-.145-.033-.03.024-37.824 0-37.861H1v-2.03h.098v-.437H1v-2.03h.098c.002-.09-.005-1.355.004-1.408a2.137 2.137 0 0 1 .626-1.373 2.185 2.185 0 0 1 1.432-.632V1H5.7v.097Z"/></g></svg>