<svg xmlns="http://www.w3.org/2000/svg" width="39" height="50"><g fill="none" fill-rule="evenodd" stroke="#0271E3" stroke-linecap="round" stroke-linejoin="round"><path stroke-width=".5" d="M3.925 5.972a.192.192 0 0 1-.146.187.193.193 0 1 1 0-.374.194.194 0 0 1 .146.187ZM4.003 3.622a.27.27 0 0 0-.205-.261.272.272 0 0 0-.339.26.272.272 0 0 0 .544.001ZM7.15 4.797a.73.73 0 0 0-1.46-.006.73.73 0 0 0 1.46.006Z"/><path stroke-width=".5" d="M37.484 3.919a.173.173 0 0 0 .172-.17c-.002-.129.005-.571-.008-.691a1.792 1.792 0 0 0-1.776-1.63c-.02-.002-32.635 0-32.659 0a1.92 1.92 0 0 0-.33.033 1.814 1.814 0 0 0-1.196.836c-.15.248-.239.533-.255.822 0 .032-.004.068-.003.1v.541l.001.003a.172.172 0 0 0 .342.003c.005-.15-.009-.585.012-.728a1.452 1.452 0 0 1 1.301-1.263c.05-.004.099-.007.148-.007h32.651a1.487 1.487 0 0 1 .622.154 1.46 1.46 0 0 1 .788 1.066c.035.173.011.592.018.769a.173.173 0 0 0 .172.162ZM20.23 46.707a.34.34 0 0 1 .259-.33c.218-.056.43.11.428.333a.344.344 0 0 1-.688-.003ZM18.856 46.707a.34.34 0 0 0-.26-.33.344.344 0 0 0-.428.333.344.344 0 0 0 .688-.003ZM19.886 46.707a.34.34 0 0 0-.26-.33.344.344 0 0 0-.427.333.344.344 0 0 0 .687-.003ZM21.044 24.216c-.002-.198.04-.396.127-.574.114-.236.298-.437.518-.58l.023-.015a1.363 1.363 0 0 0-.383-.374 1.52 1.52 0 0 0-.748-.235 1.343 1.343 0 0 0-.542.074c-.167.052-.364.146-.533.191a.44.44 0 0 1-.114.016.847.847 0 0 1-.259-.063l-.253-.098a1.571 1.571 0 0 0-.41-.102c-.143-.011-.29.007-.43.042a1.523 1.523 0 0 0-.784.5c-.14.167-.244.364-.311.572-.266.83.006 1.868.447 2.597a4.6 4.6 0 0 0 .414.564c.133.147.29.288.485.343a.732.732 0 0 0 .374-.009c.1-.024.235-.086.332-.125.221-.093.463-.122.699-.078.133.024.272.087.396.14.072.03.147.056.224.07a.82.82 0 0 0 .316 0c.321-.071.534-.35.716-.6.215-.293.394-.618.51-.962l.016-.052-.011-.004a1.41 1.41 0 0 1-.633-.553 1.342 1.342 0 0 1-.186-.685M19.35 22.368a.989.989 0 0 0 .536-.125c.232-.124.42-.32.543-.55.122-.225.187-.485.158-.74a1.22 1.22 0 0 0-.503.147c-.211.11-.396.273-.524.474-.15.233-.247.515-.21.794Z"/><path stroke-width=".5" d="M4.762 5.972c.001.467-.323.88-.778.993a1.03 1.03 0 0 1-1.283-.984A1.03 1.03 0 0 1 3.984 4.98c.455.113.78.526.778.992Z"/><path stroke-width=".5" d="M4.633 5.972a.901.901 0 0 1-1.804.008.901.901 0 0 1 1.804-.008ZM4.762 3.622A1.03 1.03 0 0 0 2.7 3.613a1.03 1.03 0 0 0 1.283 1.002c.455-.113.78-.526.778-.993Z"/><path stroke-width=".5" d="M4.633 3.622a.901.901 0 0 0-1.804-.008.901.901 0 0 0 1.804.008ZM6.792 3.228a.369.369 0 0 0-.281-.358.372.372 0 0 0-.464.362.372.372 0 0 0 .745-.004ZM6.643 6.344a.221.221 0 0 0-.169-.215.222.222 0 1 0 0 .43.224.224 0 0 0 .169-.215Z"/><path stroke-width=".5" d="M2.357 5.932A1.316 1.316 0 0 0 3.68 7.246H6.33a1.338 1.338 0 0 0 .467-.093 1.32 1.32 0 0 0 .832-1.22v-2.27a1.313 1.313 0 0 0-1.322-1.314H3.68A1.325 1.325 0 0 0 2.357 3.64v2.293h0Z"/><path stroke-width=".5" d="M2.202 5.932A1.47 1.47 0 0 0 3.654 7.4h2.654c.032 0 .07 0 .102-.003a1.479 1.479 0 0 0 1.218-.805c.09-.18.145-.38.155-.583l.002-.076v-2.32a1.466 1.466 0 0 0-1.123-1.374 1.497 1.497 0 0 0-.278-.041l-.076-.002H3.68a1.479 1.479 0 0 0-1.472 1.341 1.64 1.64 0 0 0-.005.101v2.296ZM3.048 1.1V1H5.11v.091M1 4.519h1V6.55H1zM1 6.977h1v2.031H1z"/><path stroke-width=".5" d="M35.852 48.97a2.152 2.152 0 0 0 1.935-1.208c.139-.287.212-.606.212-.925V3.182l-.001-.037-.002-.037-.002-.036a2.138 2.138 0 0 0-2.068-1.985c-.098-.007-32.63.002-32.73-.001l-.037.001-.037.002-.037.002-.037.003a2.164 2.164 0 0 0-.973.329 2.142 2.142 0 0 0-.981 1.612 2.088 2.088 0 0 0-.008.184c.003.11-.006 43.626.003 43.728a2.13 2.13 0 0 0 1.666 1.97c.12.026.244.044.367.05.042.1 32.662-.066 32.73.003Z"/><path stroke-width=".5" d="M5.11 1.086c.017-.008 30.749.005 30.766 0h.024l.072.003a2.186 2.186 0 0 1 .866.235 2.142 2.142 0 0 1 1.16 1.847c.004.106 0 43.606 0 43.713a2.126 2.126 0 0 1-1.018 1.767 2.16 2.16 0 0 1-1.128.319c-.22-.008-32.52.01-32.739-.003a2.16 2.16 0 0 1-1.677-.963 2.131 2.131 0 0 1-.345-1.024c-.002-.039-.005-.08-.005-.12-.021-.007.015-37.84 0-37.853H1v-2.03h.086V6.55H1V4.52h.086c.002-.077-.004-1.4.004-1.436a2.127 2.127 0 0 1 .57-1.316c.357-.385.862-.63 1.388-.674V1H5.11v.086h0Z"/></g></svg>