<svg xmlns="http://www.w3.org/2000/svg" width="50" height="36"><g fill="none" fill-rule="evenodd" stroke="#0271E3" stroke-linecap="round" stroke-linejoin="round"><path stroke-width=".5" d="M25.013 15.711c.193.015.388-.04.557-.133.246-.133.443-.348.57-.598.122-.234.186-.503.157-.768-.183.009-.36.07-.522.157-.214.114-.403.28-.535.487-.161.25-.266.554-.227.855ZM26.771 17.667c-.002-.214.044-.429.138-.62.124-.253.32-.468.555-.617a1.429 1.429 0 0 0-.407-.403 1.556 1.556 0 0 0-.766-.242c-.19-.02-.382.02-.562.078-.174.055-.378.155-.554.203a.436.436 0 0 1-.124.016.887.887 0 0 1-.262-.066l-.263-.104a1.6 1.6 0 0 0-.424-.108 1.393 1.393 0 0 0-.47.05c-.3.084-.572.264-.774.503a1.809 1.809 0 0 0-.34.626c-.135.432-.132.898-.055 1.341.088.495.264.977.52 1.409.136.22.287.438.459.63.13.143.285.277.474.33a.745.745 0 0 0 .387-.009c.105-.025.244-.09.345-.132.222-.096.47-.127.707-.086.145.023.294.092.429.151.198.087.426.124.634.053.295-.102.493-.367.67-.614.222-.31.407-.654.527-1.018l.017-.055-.011-.005a1.471 1.471 0 0 1-.665-.6 1.445 1.445 0 0 1-.185-.71"/><path stroke-width=".5" d="M1.013 33.48a1.5 1.5 0 0 0 1.076 1.445c.098.028.2.046.302.053.03.065 45.069-.04 45.125.004.144 0 .29-.022.429-.065a1.501 1.501 0 0 0 1.052-1.437V2.493l-.001-.026-.001-.026-.002-.026-.002-.026a1.518 1.518 0 0 0-.242-.702 1.487 1.487 0 0 0-1.105-.664c-.086-.067-45.066.037-45.176-.005a1.467 1.467 0 0 0-.617.148 1.494 1.494 0 0 0-.837 1.3c-.043.027.029 30.978-.001 31.015Z"/><path stroke-width=".5" d="M1.013 33.48c-.005-.013.004-30.965 0-30.978.001-.032.001-.069.004-.1a1.53 1.53 0 0 1 .217-.672 1.491 1.491 0 0 1 1.075-.7c.05-.006.1-.01.151-.012.012-.01 45.036.007 45.056 0a1.468 1.468 0 0 1 1.229.664 1.518 1.518 0 0 1 .245.702c.003.04.007.08.006.118.012.008-.008 30.968 0 30.979 0 .29-.084.579-.24.82a1.49 1.49 0 0 1-1.073.671 1.58 1.58 0 0 1-.134.01c-.011.01-45.036-.008-45.056 0-.223 0-.446-.052-.646-.151a1.49 1.49 0 0 1-.623-.578 1.518 1.518 0 0 1-.211-.772Z"/></g></svg>