<svg xmlns="http://www.w3.org/2000/svg" width="36" height="50"><g fill="none" fill-rule="evenodd" stroke="#0271E3" stroke-linecap="round" stroke-linejoin="round"><path stroke-width=".5" d="M19.12 42.66c-.715.003-.98-.752-1.093-1.334a6.824 6.824 0 0 1-.108-.984c-.007-.15-.011-.354-.011-.504v-8.344a8.036 8.036 0 0 1 .119-1.488c.113-.582.379-1.337 1.094-1.334M13.861 21.99a2.578 2.578 0 0 1-2.27-1.582 2.527 2.527 0 0 1-.19-1.03v-.045l.3-6.767c.016-.365.114-.729.284-1.054a2.584 2.584 0 0 1 2.401-1.379c.996.04 1.898.667 2.271 1.582.14.339.205.709.189 1.074l-.3 6.767-.002.044a2.54 2.54 0 0 1-.28 1.01 2.585 2.585 0 0 1-2.403 1.38ZM12.917 47.927c-.32-.001-.642-.05-.942-.16a1.736 1.736 0 0 1-.532-.302c-.155-.133-.283-.312-.311-.518a.405.405 0 0 1 .04-.268c.11-.192.338-.285.551-.304l.077-.003h5.408c.056.001.114.008.17.019a.715.715 0 0 1 .365.185c.06.062.106.14.12.226a.681.681 0 0 1-.056.33 1.048 1.048 0 0 1-.356.41c-.224.16-.489.259-.758.318a2.924 2.924 0 0 1-.618.066h-3.158Z"/><path stroke-width=".5" d="M9.853 25.075c-1.136-.617-2.25-1.313-3.263-2.115a18.563 18.563 0 0 1-2.481-2.377c-1.273-1.455-2.342-3.14-2.82-5.021a9.27 9.27 0 0 1-.288-2.382c.007-.771.113-1.55.287-2.302a15.087 15.087 0 0 1 1.708-4.213c.902-1.517 2.06-2.921 3.522-3.941A9.371 9.371 0 0 1 9.123 1.47c3-.903 6.27-.419 9.135.724 2.426.976 4.628 2.465 6.55 4.215 1.914 1.751 3.633 3.837 4.463 6.314.933 2.78.365 5.37-.97 7.909a17.786 17.786 0 0 1-2.767 3.889c-.654.685-1.376 1.327-2.196 1.812a6.348 6.348 0 0 1-1.99.772 6.92 6.92 0 0 1-2.227.06"/><path stroke-width=".5" d="M19.12 27.777c2.1 1.383 4.55 2.399 7.116 2.001a9.029 9.029 0 0 0 2.444-.754 11.226 11.226 0 0 0 2.34-1.453 10.679 10.679 0 0 0 2.428-2.777 10.833 10.833 0 0 0 1.303-3.297c.347-1.583.36-3.267-.15-4.818-.915-2.818-3.337-4.576-6.034-5.601"/><path stroke-width=".5" d="M7.158 15.548a6.06 6.06 0 0 1 2.216 2.845c.157.418.273.857.35 1.296a9 9 0 0 1 .126 1.334l.003.234V45.27a3.717 3.717 0 0 0 1.036 2.568 3.789 3.789 0 0 0 2.523 1.156c.068.003.143.007.21.006h2.121c.22 0 .44-.024.654-.07a3.302 3.302 0 0 0 1.734-1.022c.63-.695.971-1.625.989-2.555.02-.048-.013-22.01 0-22.072a10.082 10.082 0 0 1 .032-.778c.02-.24.052-.497.093-.735a6.96 6.96 0 0 1 .337-1.253 5.99 5.99 0 0 1 2.13-2.766"/><path stroke-width="1.027" d="M9.853 25.075c-1.137-.617-2.25-1.313-3.263-2.115a18.563 18.563 0 0 1-2.481-2.377c-1.115-1.277-2.075-2.723-2.616-4.332a9.314 9.314 0 0 1-.465-3.71c.08-1.03.318-2.052.652-3.03.38-1.103.891-2.172 1.51-3.165.902-1.438 2.045-2.764 3.47-3.718C8 1.73 9.585 1.218 11.192 1.061c1.56-.155 3.145 0 4.665.364 3.02.724 5.783 2.3 8.142 4.277 1.804 1.522 3.466 3.282 4.568 5.376 2.731 1.038 5.17 2.823 6.063 5.69.48 1.527.46 3.176.12 4.73a10.853 10.853 0 0 1-1.303 3.296 10.663 10.663 0 0 1-2.313 2.682 11.218 11.218 0 0 1-2.455 1.548c-.857.397-1.777.685-2.719.79a8.004 8.004 0 0 1-2.684-.157c-1.494-.34-2.884-1.047-4.156-1.88V45.27a4.16 4.16 0 0 1-.05.635 3.945 3.945 0 0 1-.6 1.563c-.429.654-1.08 1.173-1.838 1.4a3.08 3.08 0 0 1-.815.13c-.038.003-2.253.002-2.28 0a3.803 3.803 0 0 1-1.774-.483 3.753 3.753 0 0 1-1.512-1.574 3.698 3.698 0 0 1-.398-1.589c-.022-.081.014-20.19-.001-20.277Z"/></g></svg>