<svg xmlns="http://www.w3.org/2000/svg" width="30" height="50"><g fill="none" fill-rule="evenodd" stroke="#0271E3" stroke-linecap="round" stroke-linejoin="round"><path stroke-width=".5" d="M12.2 17.756c-.08 1.351-1.278 2.356-2.607 2.183a2.305 2.305 0 0 1-1.098-.452 2.34 2.34 0 0 1-.92-1.926c.001-.022.001-.06.003-.08.006-.043.43-7.401.436-7.438a2.348 2.348 0 0 1 .847-1.636 2.3 2.3 0 0 1 3.44.602 2.364 2.364 0 0 1 .335 1.27l-.004.081-.433 7.396ZM8.238 1.61a.953.953 0 0 0-.228.256.27.27 0 0 0-.037.15c.005.057.04.107.086.14.101.071.23.09.35.096.106.005.214-.005.318-.019.372-.05.9-.205 1.27-.298.66-.171 1.342-.29 2.025-.277a8.196 8.196 0 0 1 2.25.33c.377.105.85.297 1.247.259a.72.72 0 0 0 .324-.097.185.185 0 0 0 .083-.107.213.213 0 0 0-.01-.118.448.448 0 0 0-.1-.162c-.134-.136-.32-.201-.498-.254"/><path stroke-width=".5" d="M3.272 15.228c.735.817 1.377 1.745 1.753 2.788.121.335.215.685.273 1.037.037.22.06.447.07.67.002.04.002.108.003.148-.016.015.013 26.285 0 26.32 0 .21.024.422.07.626.284 1.27 1.418 2.186 2.708 2.183h4.166c.06-.002.132-.002.192-.007.206-.015.414-.053.612-.113a2.79 2.79 0 0 0 1.61-1.298 2.839 2.839 0 0 0 .364-1.39V24.975c-.002-.092.004-.3.004-.394.011-.482.045-.987.103-1.466.164-1.364.55-2.718 1.237-3.91a9.438 9.438 0 0 1 1.937-2.346"/><path stroke-width=".5" d="M15.093 27.466c1.438.343 2.943.501 4.41.273 2.096-.309 4.008-1.403 5.577-2.81 2.017-1.816 3.646-4.285 3.884-7.06.164-1.887-.247-3.79-.957-5.531-.924-2.254-2.358-4.284-4.111-5.954a20.748 20.748 0 0 0-7.527-4.553C13.685.917 10.647.59 7.976 1.715c-1.888.78-3.466 2.203-4.632 3.877C1.918 7.644.99 10.117 1 12.643c.04 3.549 1.913 6.836 4.371 9.27M8.426 48.18a3.492 3.492 0 0 1-1.166-.19 1.88 1.88 0 0 1-.593-.331c-.165-.142-.303-.347-.292-.574.018-.2.202-.33.374-.396a1.12 1.12 0 0 1 .397-.069h6.172a1.087 1.087 0 0 1 .43.083c.157.066.319.19.34.37.02.294-.197.536-.424.688a2.456 2.456 0 0 1-.87.344 3.702 3.702 0 0 1-.754.075H8.426Z"/><path stroke-width="1.034" d="M5.372 21.913c-.004.01.002 24.297 0 24.31a2.92 2.92 0 0 0 .053.513 2.798 2.798 0 0 0 1.387 1.917A2.76 2.76 0 0 0 8.149 49h4.166c.028 0 .066 0 .093-.002a2.77 2.77 0 0 0 1.846-.795 2.82 2.82 0 0 0 .834-1.854c.002-.04.004-.087.004-.126.023-.044-.016-18.716 0-18.758 1.326.316 2.707.478 4.064.32a9.318 9.318 0 0 0 2.73-.747c1.072-.476 2.062-1.138 2.955-1.9 2.134-1.839 3.873-4.386 4.123-7.27.16-1.828-.223-3.674-.892-5.369-.878-2.212-2.25-4.216-3.934-5.88-3.49-3.48-9.58-6.451-14.545-5.407-2.6.542-4.74 2.213-6.25 4.38-1.448 2.084-2.382 4.604-2.341 7.17.081 3.506 1.938 6.744 4.37 9.15Z"/></g></svg>