<svg xmlns="http://www.w3.org/2000/svg" width="45" height="50"><g fill="none" fill-rule="evenodd" stroke="#0271E3" stroke-linecap="round" stroke-linejoin="round"><path stroke-width=".5" d="M4.54 28.912a.145.145 0 0 1-.12.206c-.023.004-.1-.013-.124-.015a.193.193 0 0 1-.143-.107l-.268-.577a.146.146 0 0 1-.013-.074.146.146 0 0 1 .167-.13c.026.004.1.013.123.022a.194.194 0 0 1 .109.096l.002.005.267.574ZM13.469 45.777a.145.145 0 0 0-.198-.037.145.145 0 0 0-.042.042c-.013.018-.037.095-.046.116a.195.195 0 0 0 .02.173l1.048 1.485a.145.145 0 0 0 .139.06.145.145 0 0 0 .114-.09v-.003l.032-.086a.195.195 0 0 0-.018-.173l-1.05-1.487ZM40.46 28.912a.145.145 0 0 0 .12.206c.023.004.1-.013.124-.015a.193.193 0 0 0 .143-.107l.268-.577a.146.146 0 0 0 .013-.074.146.146 0 0 0-.167-.13c-.026.004-.1.013-.123.022a.194.194 0 0 0-.109.096l-.002.005-.267.574ZM31.531 45.777a.145.145 0 0 1 .198-.037c.017.01.03.025.042.042.013.018.037.095.046.116a.195.195 0 0 1-.02.173l-1.048 1.485a.145.145 0 0 1-.139.06.145.145 0 0 1-.114-.09v-.003l-.032-.086a.195.195 0 0 1 .018-.173l1.05-1.487Z"/><path stroke-width=".5" d="M2.904 26.286a.77.77 0 0 0 .193-.48v-.015l.049-2.35M1.617 23.325l-.049 2.435v.017a.79.79 0 0 0 .019.167c0 .005.003.014.004.018a.77.77 0 0 0 .841.575M3.862 22.725l-2.797-.212"/><path stroke-width=".5" d="M22.5 2.665c-3.73-.002-7.272.845-10.3 3.107a24.323 24.323 0 0 0-2.33 1.995c-.61.593-1.266 1.223-1.798 1.886a6.669 6.669 0 0 0-.681 1.017 9.69 9.69 0 0 0-.639 1.52c-.205.623-.512 1.612-.756 2.209-.204.499-.66 1.58-.833 2.07-.185.51-.36 1.076-.5 1.601-.47 1.763-.727 3.602-.865 5.42L1 23.28c.194-2.535.603-5.095 1.47-7.492a20.05 20.05 0 0 1 1.394-3.006c.332-.595.697-1.2 1.1-1.75.347-.468 1.23-1.69 1.583-2.12a23.68 23.68 0 0 1 1.5-1.667c1.246-1.253 2.572-2.474 4.06-3.431C15.227 1.784 18.817.996 22.5 1"/><path stroke-width=".5" d="M22.5 5.872a20.902 20.902 0 0 0-9.245 2.116 26.43 26.43 0 0 0-2.468 1.374c-1.06.652-2.951 2.014-3.996 2.716M7.057 24.472a2.31 2.31 0 0 0-.947 3.088c-.014 0 9.456 17.555 9.453 17.567a2.313 2.313 0 0 0 1.085 1.01c.682.308 1.49.256 2.128-.137a2.31 2.31 0 0 0 .844-3.029c-.039-.078-9.43-17.523-9.472-17.602a2.521 2.521 0 0 0-.248-.359 2.29 2.29 0 0 0-2.843-.539Z"/><path stroke-width=".5" d="M16.097 45.789c-.085.097-.16.203-.216.32a1.22 1.22 0 0 0-.101.325c-.034.206-.038.435-.072.642-.033.22-.088.439-.182.64a2.096 2.096 0 0 1-.707.814c-.245.173-.52.305-.806.391a1.87 1.87 0 0 1-.667.074c-.378-.027-.74-.166-1.074-.344a5.199 5.199 0 0 1-.821-.55c-.57-.468-1.05-1.048-1.497-1.634-1.392-1.87-2.588-4.009-3.724-6.046-1.227-2.251-2.515-4.676-3.538-7.026-.424-.994-.839-2.028-1.092-3.081a6.255 6.255 0 0 1-.183-1.347 5.054 5.054 0 0 1 .06-.861 2.74 2.74 0 0 1 .26-.82 1.89 1.89 0 0 1 .526-.628c.319-.245.69-.426 1.084-.51a1.94 1.94 0 0 1 .727-.02c.226.037.443.12.646.223.182.089.38.222.562.311.083.04.171.073.261.093.107.025.218.033.327.03M37.943 24.472a2.31 2.31 0 0 1 .947 3.088c.014 0-9.456 17.555-9.453 17.567a2.313 2.313 0 0 1-1.085 1.01A2.292 2.292 0 0 1 26.225 46a2.31 2.31 0 0 1-.844-3.029c.039-.078 9.43-17.523 9.472-17.602a2.521 2.521 0 0 1 .248-.359 2.29 2.29 0 0 1 2.843-.539ZM41.138 22.725l2.797-.212M22.5 2.665c3.73-.002 7.272.845 10.3 3.107a24.323 24.323 0 0 1 2.33 1.995c.61.593 1.266 1.223 1.798 1.886.255.317.488.658.681 1.017a9.69 9.69 0 0 1 .639 1.52c.205.623.512 1.612.756 2.209.204.499.66 1.58.833 2.07.185.51.36 1.076.5 1.601.47 1.763.727 3.602.865 5.42L44 23.28c-.194-2.535-.603-5.095-1.47-7.492a20.05 20.05 0 0 0-1.394-3.006c-.332-.595-.697-1.2-1.1-1.75-.347-.468-1.23-1.69-1.583-2.12a23.68 23.68 0 0 0-1.5-1.667c-1.246-1.253-2.572-2.474-4.06-3.431C29.773 1.784 26.183.996 22.5 1M43.39 27.532c.202-.073.247-.238.167-.429a.93.93 0 0 0-.13-.213 1.828 1.828 0 0 0-.265-.266 3.014 3.014 0 0 0-1.055-.554 1.645 1.645 0 0 0-.585-.073.548.548 0 0 0-.246.076.246.246 0 0 0-.117.183.372.372 0 0 0 .018.158c.027.083.073.16.124.23.14.185.324.335.516.464.264.174.554.31.858.394.14.038.285.065.43.068a.807.807 0 0 0 .284-.038Z"/><path stroke-width=".5" d="m43.564 27.396-.186.34c-.065.127-.218.167-.349.178a1.515 1.515 0 0 1-.453-.042 2.881 2.881 0 0 1-.675-.256 2.61 2.61 0 0 1-.689-.505 1.002 1.002 0 0 1-.222-.344.358.358 0 0 1-.016-.189.247.247 0 0 1 .017-.048l.007-.015.189-.347"/><path stroke-width=".5" d="M28.903 45.789c.134.152.242.33.292.528.027.104.04.212.05.318.013.147.028.332.053.477.034.214.09.427.185.622.079.166.185.319.308.454.191.21.422.382.67.516.185.098.38.179.58.233.21.056.43.075.647.055a2.67 2.67 0 0 0 .948-.293c.302-.154.59-.341.856-.552.272-.215.526-.463.76-.718.417-.453.806-.966 1.164-1.467a40.682 40.682 0 0 0 1.578-2.44c1.067-1.777 2.184-3.825 3.15-5.661.795-1.536 1.66-3.252 2.326-4.845.267-.643.538-1.34.74-2.007.135-.443.253-.903.319-1.362a5.22 5.22 0 0 0 .032-1.247 3.406 3.406 0 0 0-.186-.863M41.239 26.102a1.813 1.813 0 0 0-.523.074c-.209.06-.408.155-.597.261-.163.09-.35.216-.526.278a1.215 1.215 0 0 1-.463.07M43.383 23.325l.05 2.447a.798.798 0 0 1-.08.343.767.767 0 0 1-.382.365M41.945 26.03a.776.776 0 0 1-.043-.232l-.048-2.357M22.5 5.872a20.902 20.902 0 0 1 9.245 2.116 26.43 26.43 0 0 1 2.468 1.374c1.06.652 2.951 2.014 3.996 2.716"/><path stroke-width=".5" d="M1.617 23.325 1 23.28c.213-2.765.677-5.557 1.718-8.138.322-.804.725-1.604 1.146-2.36.333-.596.696-1.2 1.1-1.75.257-.335 1.167-1.605 1.407-1.898.245-.315.555-.68.82-.979a32.522 32.522 0 0 1 3.15-3.038C13.876 2.155 17.947 1.003 22.5 1c4.553.003 8.624 1.155 12.16 4.116a32.474 32.474 0 0 1 3.149 3.038c.262.299.577.664.82.979.268.328 1.146 1.555 1.408 1.898a16.77 16.77 0 0 1 1.099 1.75c.42.755.825 1.556 1.146 2.36 1.04 2.58 1.505 5.373 1.718 8.138l-.617.046.05 2.447a.798.798 0 0 1-.08.343.767.767 0 0 1-.382.365c.173.12.337.257.467.424a.78.78 0 0 1 .146.28c.009.038.013.079.009.118a.256.256 0 0 1-.028.091c0 .004-.145.266-.146.27.106.337.148.695.162 1.048.028.695-.11 1.387-.298 2.052-.295 1.03-.719 2.054-1.15 3.033-.779 1.748-1.767 3.657-2.67 5.348-.987 1.829-2.087 3.815-3.204 5.562-.628.969-1.29 1.953-2.077 2.799-.306.326-.642.63-1.014.88-.237.159-.489.304-.752.416a2.312 2.312 0 0 1-.911.199c-.231-.001-.46-.05-.677-.131-.437-.163-.846-.429-1.137-.8-.11-.139-.199-.296-.263-.462a2.56 2.56 0 0 1-.146-.604c-.03-.213-.031-.447-.08-.656a1.28 1.28 0 0 0-.3-.558 2.29 2.29 0 0 1-2.252.415 2.305 2.305 0 0 1-1.252-3.268c.003-.012 9.442-17.542 9.447-17.554l.012-.023.013-.022.013-.022a2.34 2.34 0 0 1 .308-.407 2.29 2.29 0 0 1 3.081-.22c.63.497.958 1.3.858 2.096.157.006.316-.015.463-.069.176-.062.363-.188.526-.278.189-.106.388-.201.597-.261.17-.05.346-.075.523-.074a.431.431 0 0 1 .21-.094 1.31 1.31 0 0 1 .496.022.776.776 0 0 1-.043-.232l-.048-2.357-.652.05c-.138-1.82-.395-3.656-.864-5.42a19.94 19.94 0 0 0-.5-1.603c-.173-.488-.634-1.579-.834-2.07-.262-.64-.57-1.655-.795-2.32-1.581-1.07-3.582-2.549-5.242-3.454a22.21 22.21 0 0 0-4.049-1.769 21.022 21.022 0 0 0-6.418-.982c-2.17-.002-4.35.32-6.419.982a22.215 22.215 0 0 0-4.048 1.77c-1.659.903-3.669 2.39-5.242 3.454-.226.667-.532 1.675-.795 2.32-.204.499-.66 1.58-.834 2.07-.185.51-.36 1.077-.5 1.601-.469 1.765-.727 3.601-.865 5.42l-.652-.049-.047 2.35a.776.776 0 0 1-.194.495c.343-.14.72-.216 1.09-.17.255.03.499.12.726.235.128.064.297.165.422.237.084.049.173.094.264.127.148.054.307.075.464.07-.102-.812.24-1.627.89-2.12a2.29 2.29 0 0 1 3.407.739c.008.009 9.438 17.543 9.446 17.554l.012.023.012.023.011.023a2.323 2.323 0 0 1 .216 1.256 2.305 2.305 0 0 1-1.553 1.934 2.29 2.29 0 0 1-2.214-.428c-.085.097-.16.203-.216.32-.05.102-.082.213-.101.325-.032.193-.038.411-.067.605-.03.213-.079.425-.163.623-.157.37-.443.674-.772.897a2.822 2.822 0 0 1-.504.27 1.952 1.952 0 0 1-1.325.098 3.408 3.408 0 0 1-.819-.355c-.973-.559-1.697-1.456-2.357-2.348a38.054 38.054 0 0 1-1.767-2.702c-1.067-1.777-2.184-3.825-3.15-5.661-.796-1.536-1.66-3.251-2.326-4.845-.317-.764-.628-1.572-.846-2.37a7.377 7.377 0 0 1-.256-1.397 4.965 4.965 0 0 1 .066-1.24c.068-.354.193-.705.412-.994a2.05 2.05 0 0 1 .526-.478.763.763 0 0 1-.864-.769c-.002-.011.05-2.432.05-2.443Z"/></g></svg>