<svg xmlns="http://www.w3.org/2000/svg" width="29" height="50"><g fill="none" fill-rule="evenodd" stroke="#0271E3" stroke-linecap="round" stroke-linejoin="round"><path stroke-width=".5" d="M23.23 39.29a4.477 4.477 0 0 0-.628.797 4.166 4.166 0 0 0-.394.87 9.331 9.331 0 0 0-.297 1.258c-.212 1.187-.32 2.649-.417 3.858a5.86 5.86 0 0 1-.146.93c-.052.19-.123.377-.235.539-.162.239-.404.41-.657.54-.277.142-.577.25-.873.343-.685.213-1.405.33-2.116.41-1.174.13-2.425.162-3.606.165-1.182-.003-2.432-.035-3.606-.165-.71-.08-1.431-.197-2.116-.41a5.644 5.644 0 0 1-.873-.343c-.253-.13-.495-.301-.657-.54a1.751 1.751 0 0 1-.235-.54c-.08-.3-.116-.62-.146-.93-.098-1.214-.205-2.667-.417-3.857a9.35 9.35 0 0 0-.297-1.257 4.17 4.17 0 0 0-.395-.871 4.473 4.473 0 0 0-.628-.797M26.65 21.873c0 .025.006.051.02.073a.154.154 0 0 0 .058.05c.069.035.148.041.224.043.062 0 .156.003.217-.004a.8.8 0 0 0 .17-.037.934.934 0 0 0 .492-.408 1.174 1.174 0 0 0 .168-.583L28 20.97V17.518a1.175 1.175 0 0 0-.168-.583.934.934 0 0 0-.494-.409.8.8 0 0 0-.17-.037c-.064-.007-.16-.003-.225-.004a.505.505 0 0 0-.215.043.151.151 0 0 0-.059.052.134.134 0 0 0-.019.071M23.196 10.71a4.477 4.477 0 0 1-.628-.797 4.166 4.166 0 0 1-.395-.87 9.331 9.331 0 0 1-.297-1.258c-.212-1.186-.32-2.648-.416-3.858a5.86 5.86 0 0 0-.147-.93 1.751 1.751 0 0 0-.235-.539c-.162-.239-.403-.41-.657-.54a5.639 5.639 0 0 0-.873-.343c-.685-.212-1.405-.33-2.116-.41-1.174-.13-2.424-.162-3.606-.165-1.181.003-2.431.035-3.605.165-.711.08-1.432.198-2.116.41a5.644 5.644 0 0 0-.874.343c-.253.13-.495.301-.657.54-.111.163-.183.35-.234.54-.081.3-.116.62-.147.93-.097 1.214-.204 2.667-.417 3.857a9.35 9.35 0 0 1-.297 1.257 4.17 4.17 0 0 1-.394.871c-.175.29-.393.556-.629.798M7.516 39.161a5.608 5.608 0 0 1-5.304-3.814 5.652 5.652 0 0 1-.297-1.748c-.048-.024-.001-17.097-.035-17.135a5.66 5.66 0 0 1 .32-1.875 5.598 5.598 0 0 1 5.22-3.75c.034-.037 12.705.027 12.75 0h.063a5.602 5.602 0 0 1 3.743 1.496 5.644 5.644 0 0 1 1.794 3.94l.003.126.034 17.136v.062l-.001.063-.002.063-.002.063-.003.063a5.707 5.707 0 0 1-.438 1.886 5.607 5.607 0 0 1-4.716 3.407c-.102.007-.214.015-.315.016-.031.003-.094 0-.125.001H7.516Z"/><path stroke-width=".5" d="M26.5 21.22c.096.196.147.414.15.632l.035 11.685v.072c-.003.09-.005.2-.01.291a6.656 6.656 0 0 1-.263 1.503 6.49 6.49 0 0 1-5.845 4.63c-.091.002-.199.01-.29.009H7.444a6.509 6.509 0 0 1-1.032-.095 6.5 6.5 0 0 1-5.374-6.266c0-.037-.002-.107-.001-.144.022-.086-.052-17.07-.034-17.146.002-.09.003-.2.01-.29a6.567 6.567 0 0 1 .605-2.405 6.484 6.484 0 0 1 5.864-3.738c.114.002 12.651-.002 12.76 0 .091.003.2.004.29.01a6.488 6.488 0 0 1 4.72 2.46 6.553 6.553 0 0 1 1.398 4.224 1.5 1.5 0 0 1-.1.536c-.027.074-.065.142-.09.216a3.773 3.773 0 0 0-.158.775 9.948 9.948 0 0 0 .017 2.302c.02.155.05.315.088.466.023.093.052.186.094.273Z"/><path stroke-width=".5" d="M4.49 39.29a6.508 6.508 0 0 1-3.453-5.753c0-.187-.036-16.993-.034-17.172a6.554 6.554 0 0 1 .398-2.147 6.51 6.51 0 0 1 3.055-3.508c.236-.242.453-.507.629-.797.166-.272.295-.568.394-.87.133-.405.222-.839.297-1.258.212-1.187.32-2.649.417-3.858.031-.31.065-.629.147-.93.05-.19.123-.377.234-.539.162-.239.404-.41.657-.54.277-.142.577-.25.873-.343.685-.213 1.406-.33 2.117-.41 1.173-.13 2.424-.162 3.605-.165 1.182.003 2.432.035 3.606.165.711.08 1.431.197 2.116.41.296.093.597.201.873.343.253.13.495.301.657.54.112.162.184.35.235.54.081.3.116.62.146.93.098 1.214.205 2.667.417 3.857.075.42.164.853.297 1.257.1.303.229.6.395.871.175.29.392.556.628.797a6.522 6.522 0 0 1 3.454 5.931.129.129 0 0 1 .021-.065.152.152 0 0 1 .055-.047.516.516 0 0 1 .227-.044c.061 0 .155-.003.216.004a.799.799 0 0 1 .158.034c.22.07.404.234.518.434a1.178 1.178 0 0 1 .154.56l.001.036V21.006a1.18 1.18 0 0 1-.155.56.937.937 0 0 1-.518.435.799.799 0 0 1-.158.034c-.06.007-.155.003-.216.004a.508.508 0 0 1-.23-.045.15.15 0 0 1-.053-.05.128.128 0 0 1-.02-.061l.035 11.654-.001.098a6.585 6.585 0 0 1-.18 1.423 6.503 6.503 0 0 1-3.274 4.23 4.477 4.477 0 0 0-.628.799 4.166 4.166 0 0 0-.394.87 9.331 9.331 0 0 0-.297 1.258c-.212 1.186-.32 2.649-.417 3.858a5.86 5.86 0 0 1-.146.93c-.052.189-.123.376-.235.539-.162.239-.404.41-.657.54-.277.142-.577.25-.873.343-.685.212-1.405.33-2.116.41-1.174.13-2.425.162-3.606.165-1.182-.003-2.432-.035-3.606-.165-.71-.08-1.431-.198-2.116-.41a5.644 5.644 0 0 1-.873-.343c-.253-.13-.495-.301-.657-.54a1.751 1.751 0 0 1-.235-.54c-.08-.3-.116-.62-.146-.93-.098-1.214-.205-2.667-.417-3.857a9.35 9.35 0 0 0-.297-1.257 4.17 4.17 0 0 0-.395-.871 4.496 4.496 0 0 0-.628-.797Z"/></g></svg>