<svg xmlns="http://www.w3.org/2000/svg" width="30" height="50"><g fill="none" fill-rule="evenodd" stroke="#0271E3" stroke-linecap="round" stroke-linejoin="round"><path stroke-width=".5" d="M25.762 19.082c-.001-2.705-.731-5.446-3.343-6.762-.951-.482-2.013-.72-3.072-.816a13.056 13.056 0 0 0-.92-.048c-.472 0-8.24-.014-8.596.01-.61.027-1.225.097-1.822.225-1.322.282-2.574.873-3.474 1.895-.907 1.02-1.37 2.352-1.563 3.68a12.321 12.321 0 0 0-.123 1.563l-.002.253V31.05a12.756 12.756 0 0 0 .08 1.47c.148 1.291.522 2.593 1.305 3.652.873 1.189 2.153 1.885 3.578 2.223.699.167 1.42.25 2.138.274.395.014 8.161.01 8.596.004.3-.008.614-.026.912-.056 1.214-.12 2.435-.436 3.469-1.094.996-.629 1.716-1.539 2.164-2.616.189-.45.33-.926.433-1.403.12-.556.189-1.13.22-1.697.004-.114.014-.265.015-.379 0-.066.006-.305.005-.378v-11.97ZM1.364 20.795a.752.752 0 0 0-.056-.305.147.147 0 0 0-.054-.066.052.052 0 0 0-.055.003.139.139 0 0 0-.042.05.454.454 0 0 0-.042.12.993.993 0 0 0-.016.294.64.64 0 0 0 .05.21c.019.037.056.09.104.067a.144.144 0 0 0 .055-.067.753.753 0 0 0 .056-.306ZM1.364 19.693a.752.752 0 0 0-.056-.306.147.147 0 0 0-.054-.066.052.052 0 0 0-.055.003.139.139 0 0 0-.042.05.454.454 0 0 0-.042.12.993.993 0 0 0-.016.294.64.64 0 0 0 .05.21c.019.037.056.09.104.067a.144.144 0 0 0 .055-.067.753.753 0 0 0 .056-.305ZM1.364 18.59a.752.752 0 0 0-.056-.305.147.147 0 0 0-.054-.067.052.052 0 0 0-.055.003.139.139 0 0 0-.042.05.454.454 0 0 0-.042.12.993.993 0 0 0-.016.294.64.64 0 0 0 .05.21c.019.038.056.091.104.067a.144.144 0 0 0 .055-.067.753.753 0 0 0 .056-.305ZM27.167 21.006a.197.197 0 0 0 .148.19.194.194 0 0 0 .038.005c.002.002 1.365 0 1.368 0a.196.196 0 0 0 .192-.182v-.202a.2.2 0 0 0-.06-.135.192.192 0 0 0-.132-.054H27.36a.193.193 0 0 0-.191.175c-.004.006 0 .192-.001.203ZM27.167 21.982c0 .06.037.113.089.141a.21.21 0 0 0 .103.026h1.362a.196.196 0 0 0 .177-.102.15.15 0 0 0 .016-.065v-.168a.168.168 0 0 0-.098-.135.21.21 0 0 0-.09-.021h-1.367a.214.214 0 0 0-.04.003.187.187 0 0 0-.142.11.152.152 0 0 0-.01.052v.159ZM27.167 22.828c0 .06.055.1.108.117a.264.264 0 0 0 .084.013h1.362c.06 0 .124-.018.165-.063a.103.103 0 0 0 .028-.061v-.136a.088.088 0 0 0-.006-.024c-.016-.042-.057-.07-.098-.084a.258.258 0 0 0-.084-.015H27.35a.253.253 0 0 0-.11.028.14.14 0 0 0-.068.071.094.094 0 0 0-.005.026v.128ZM27.167 19.848c0-.06.037-.114.089-.142a.21.21 0 0 1 .103-.026h1.362c.072 0 .146.037.177.102a.15.15 0 0 1 .016.066v.168a.168.168 0 0 1-.098.134.21.21 0 0 1-.09.022h-1.367a.214.214 0 0 1-.04-.003.187.187 0 0 1-.142-.11.152.152 0 0 1-.01-.053v-.158ZM27.167 19.002c0-.06.055-.1.108-.117a.264.264 0 0 1 .084-.013h1.362c.06 0 .124.018.165.063a.103.103 0 0 1 .028.061v.135a.088.088 0 0 1-.006.024c-.016.043-.057.07-.098.085a.258.258 0 0 1-.084.014c0 .002-1.366 0-1.367 0h-.009a.253.253 0 0 1-.11-.028.14.14 0 0 1-.068-.07.094.094 0 0 1-.005-.026v-.128Z"/><path stroke-width=".5" d="M26.653 19.082c.003-2.976-.856-5.943-3.656-7.457-1.059-.574-2.255-.87-3.45-.988a13.68 13.68 0 0 0-.98-.06c-.417-.007-8.107-.01-8.525 0-.558.015-1.124.061-1.675.15-1.297.206-2.58.659-3.624 1.461-1.158.881-1.917 2.118-2.33 3.494-.217.714-.345 1.46-.408 2.202-.025.303-.041.625-.046.93l-.003.268v11.97c.004.137.002.396.01.536.02.548.07 1.104.162 1.645.202 1.2.614 2.387 1.33 3.385.978 1.371 2.414 2.206 4.04 2.61.79.198 1.606.296 2.419.324.483.016 8.132.01 8.65.004.362-.01.737-.033 1.097-.072 1.466-.159 2.938-.597 4.128-1.483 1.043-.769 1.786-1.837 2.232-3.04.168-.447.298-.917.393-1.385.114-.564.183-1.145.214-1.72.004-.12.015-.281.017-.402.002-.07.005-.325.005-.403v-11.97ZM1.035 32.039h.002l.002-.002h.001l.002-.001.002-.001.002-.001.002-.001.002-.001.002-.001.002-.002h.002a.215.215 0 0 0 .052-.054.56.56 0 0 0 .057-.103 1.72 1.72 0 0 0 .095-.318c.037-.175.06-.36.075-.54.014-.178.021-.365.021-.544v-5.671a7.888 7.888 0 0 0-.018-.507 4.528 4.528 0 0 0-.078-.578 1.739 1.739 0 0 0-.094-.314.577.577 0 0 0-.056-.104.222.222 0 0 0-.05-.052l-.002-.002-.002-.001-.002-.001-.002-.002H1.05l-.002-.002-.002-.001-.002-.001-.002-.001-.002-.001h-.002l-.002-.002h-.002l-.002-.001H1.03l-.002-.001-.002-.001h-.004l-.002-.001h-.002l-.002-.001h-.012M28.575 33.1a.428.428 0 0 0 .409-.306.425.425 0 0 0 .015-.092c.002-.009 0-5.888 0-5.902a.419.419 0 0 0-.424-.42M28.575 18.394c-.037.001-.615-.001-.635.002a1.242 1.242 0 0 0-.159.016.892.892 0 0 0-.317.116.793.793 0 0 0-.241.235 1.182 1.182 0 0 0-.161.38c-.044.181-.059.37-.059.556v2.432l.002.12c.005.112.016.229.036.34.031.167.085.334.181.476a.794.794 0 0 0 .242.234c.096.06.206.097.317.116.057.01.116.016.174.018h.62"/><path stroke-width=".5" d="M28.575 18.394c-.002-.005.002-1.993 0-1.998a.158.158 0 0 0-.145-.15l-.507-.001a.802.802 0 0 1-.692-.452.793.793 0 0 1-.04-.102c-.026-.095-.06-.212-.09-.306-.547-1.799-1.603-3.327-3.22-4.338-1.201-.756-2.601-1.16-4.007-1.323a14.542 14.542 0 0 0-1.248-.089c-.676-.008-8.272-.02-8.883.008-.794.035-1.593.134-2.366.32-1.695.401-3.247 1.233-4.365 2.579-.942 1.123-1.505 2.52-1.777 3.945a13.3 13.3 0 0 0-.22 2.014c-.002.13-.012.304-.01.434l-.001.147v12.116c.004.326.016.671.041.996.059.775.181 1.553.39 2.303.414 1.505 1.196 2.897 2.395 3.926 1.098.951 2.479 1.538 3.9 1.825.573.118 1.164.191 1.749.227.214.012.452.023.666.026.329.002 8.208.009 8.48-.003.677-.02 1.372-.084 2.037-.207.643-.12 1.281-.293 1.889-.535 1.498-.59 2.753-1.58 3.611-2.938a8.284 8.284 0 0 0 .79-1.62c.074-.206.145-.425.205-.636.018-.058.033-.13.057-.184a.795.795 0 0 1 .667-.487c.022-.003.048-.003.07-.003h.469a.16.16 0 0 0 .153-.13c.025-.008-.013-10.306.002-10.323"/><path stroke-width=".5" d="M28.575 17.735a.85.85 0 0 1 .255.245c.079.118.126.255.15.393a1.446 1.446 0 0 1 .02.219V23.2c0 .085-.006.172-.02.257a.997.997 0 0 1-.15.392.85.85 0 0 1-.255.246M24.887 11.805a2.698 2.698 0 0 1-.5-.644 1.904 1.904 0 0 1-.22-.69c-.01-.072-.117-1.208-.13-1.246a1.754 1.754 0 0 0-.589-1.033 1.778 1.778 0 0 0-1.15-.423M6.311 7.77a1.78 1.78 0 0 0-1.15.422 1.75 1.75 0 0 0-.594 1.062l-.008.06-.003.03-.113 1.127a1.904 1.904 0 0 1-.221.69c-.13.24-.305.454-.5.644M24.887 38.328c-.195.19-.37.404-.5.643a1.904 1.904 0 0 0-.22.69c-.01.073-.117 1.209-.13 1.247a1.754 1.754 0 0 1-.589 1.033c-.316.27-.732.424-1.15.422M6.311 42.363a1.78 1.78 0 0 1-1.15-.422 1.75 1.75 0 0 1-.594-1.063l-.008-.06-.003-.03-.113-1.127a1.904 1.904 0 0 0-.221-.69 2.698 2.698 0 0 0-.5-.643M8.081 43.508h12.447"/><path stroke-width=".5" d="M21.98 9.629a.321.321 0 0 0 .3-.21.313.313 0 0 0 .018-.087c.019-.016-.013-8.005 0-8.024a.315.315 0 0 0-.293-.307c-3.852 0-11.55-.003-15.4 0a.316.316 0 0 0-.293.307c.012.035-.01 7.995 0 8.027a.313.313 0 0 0 .208.275c.026.01.053.016.08.018 3.842.002 11.54.001 15.38.001ZM8.081 47.856H6.615a.33.33 0 0 1-.142-.04.316.316 0 0 1-.162-.271v-6.733a.354.354 0 0 1 .023-.11.316.316 0 0 1 .289-.198c0-.005 7.679.003 7.682 0h7.686a.32.32 0 0 1 .307.308v6.736a.317.317 0 0 1-.304.308h-1.466"/><path stroke-width=".5" d="M8.081 40.504v8.184a.318.318 0 0 0 .094.219.32.32 0 0 0 .189.09c0 .007 11.834 0 11.846.002a.32.32 0 0 0 .303-.217.316.316 0 0 0 .015-.094c.003-.004-.002-8.18 0-8.184M8.081 47.127h12.447"/><path stroke-width=".5" d="M3.722 38.328c-1.214-1.085-1.976-2.544-2.36-4.106a12.247 12.247 0 0 1-.319-2.053c-.076-.637-.026-6.325-.04-7.103.006-1.475-.01-4.934.007-6.44.007-.234.02-.499.039-.733.046-.589.13-1.185.26-1.761.368-1.644 1.14-3.188 2.413-4.327.195-.19.37-.404.5-.644.116-.213.194-.449.221-.69.006-.049.12-1.228.127-1.237a1.737 1.737 0 0 1 .573-1.026c.318-.281.742-.44 1.168-.439V1.312a.304.304 0 0 1 .016-.094A.315.315 0 0 1 6.622 1h15.365a.511.511 0 0 1 .088.015.319.319 0 0 1 .22.261l.003.032V7.77c.426-.001.85.158 1.169.439a1.75 1.75 0 0 1 .572 1.026c.01.01.119 1.19.127 1.237.027.241.105.477.221.69.13.24.305.454.5.644 1.148 1.026 1.895 2.39 2.296 3.86a.786.786 0 0 0 .55.55.806.806 0 0 0 .172.029c.042.004.49-.003.536.003a.157.157 0 0 1 .134.15c.002.007-.002 1.331 0 1.338a.85.85 0 0 1 .254.245c.08.118.127.254.15.393a1.446 1.446 0 0 1 .02.218V23.2c0 .086-.006.173-.02.257a.997.997 0 0 1-.15.393.85.85 0 0 1-.254.245v2.286a.429.429 0 0 1 .386.246.418.418 0 0 1 .039.174c-.002.036.001 5.873-.001 5.903a.452.452 0 0 1-.038.15.422.422 0 0 1-.386.247v.634a.157.157 0 0 1-.154.154h-.509a.808.808 0 0 0-.509.215.788.788 0 0 0-.22.365 9.005 9.005 0 0 1-.573 1.544c-.419.87-1 1.669-1.723 2.316-.195.19-.37.404-.5.644a1.904 1.904 0 0 0-.22.69c-.007.049-.12 1.228-.128 1.237a1.737 1.737 0 0 1-.572 1.026c-.319.28-.743.44-1.17.439 0 .048.003 5.155 0 5.202a.311.311 0 0 1-.182.26.324.324 0 0 1-.132.03h-1.455v.828a.312.312 0 0 1-.111.24.32.32 0 0 1-.193.075H8.4a.321.321 0 0 1-.31-.243.31.31 0 0 1-.007-.058v-.842H6.625a.32.32 0 0 1-.298-.214.311.311 0 0 1-.015-.076c-.004-.026 0-5.175-.001-5.203a1.778 1.778 0 0 1-1.17-.438 1.749 1.749 0 0 1-.572-1.027c-.01-.009-.118-1.188-.127-1.237a1.904 1.904 0 0 0-.22-.69 2.7 2.7 0 0 0-.5-.643Z"/></g></svg>