<svg xmlns="http://www.w3.org/2000/svg" width="29" height="50"><g fill="none" fill-rule="evenodd" stroke="#0271E3" stroke-linecap="round" stroke-linejoin="round"><path stroke-width=".5" d="M7.093 39.403c-2.262.002-4.27-1.51-4.924-3.706a5.314 5.314 0 0 1-.22-1.508V15.81c.003-.078.002-.19.008-.27a5.238 5.238 0 0 1 1.595-3.51 5.112 5.112 0 0 1 3.364-1.43c.045 0 .132-.004.177-.003h13.584c.076.003.189.001.266.007l.089.006.088.006a5.137 5.137 0 0 1 3.347 1.67 5.262 5.262 0 0 1 1.346 3.255c.002.081.009.188.007.27-.028.106.021 18.377 0 18.468a5.428 5.428 0 0 1-.11.982 5.196 5.196 0 0 1-2.643 3.544 5.13 5.13 0 0 1-1.246.467l-.086.02c-.043.01-.131.024-.175.033-.14.024-.297.047-.44.059-.045.002-.132.01-.177.012-.079.007-.187.005-.266.007H7.093Z"/><path stroke-width=".5" d="M3.964 10.679C5.037 9.682 5.5 8.218 5.82 6.82c.283-1.26.461-2.623.61-3.908.019-.129.055-.256.108-.375.149-.339.437-.613.783-.732 1-.331 2.05-.546 3.094-.663 1.133-.13 2.329-.143 3.47-.142 1.14-.001 2.336.012 3.47.142 1.044.117 2.094.332 3.093.663.346.12.635.393.783.732.053.119.09.246.108.375.136 1.185.303 2.456.547 3.622.324 1.493.775 3.077 1.919 4.145M3.964 39.32c1.073.998 1.535 2.462 1.856 3.86.283 1.26.461 2.622.61 3.908.019.129.055.256.108.375.149.338.437.613.783.732 1 .331 2.05.546 3.094.663 1.133.13 2.329.143 3.47.142 1.14 0 2.336-.012 3.47-.142a15.277 15.277 0 0 0 3.093-.663c.346-.12.635-.393.783-.732.053-.119.09-.246.108-.375.136-1.185.303-2.457.547-3.622.324-1.493.775-3.077 1.919-4.145"/><path stroke-width=".5" d="M26.769 33.328c-.002.298.007.75-.024 1.05a6.568 6.568 0 0 1-2.768 4.828 6.424 6.424 0 0 1-3.673 1.159H7.464c-.097-.003-.236-.002-.334-.009a6.468 6.468 0 0 1-1.104-.155 6.46 6.46 0 0 1-3.325-1.96A6.602 6.602 0 0 1 1 33.926V16.075l.003-.113.005-.113a6.615 6.615 0 0 1 1.402-3.746 6.47 6.47 0 0 1 3.507-2.278c.394-.098.807-.16 1.212-.181.1-.002.234-.011.335-.009h12.84a6.419 6.419 0 0 1 3.486 1.035 6.563 6.563 0 0 1 2.954 4.953c.023.277.026.617.024.897M26.769 21.501v4.45"/><path stroke-width=".5" d="M26.769 33.328h.21v-7.377h-.224l-.003.001h-.002l-.002.001-.002.001h-.003l-.002.001-.002.001-.002.001-.002.001-.002.001-.002.002h-.003l-.002.002-.002.001-.002.002-.002.001-.002.002-.002.002-.002.001-.002.002-.002.002-.001.002-.002.002-.002.002-.002.002-.002.003-.002.002-.002.003-.001.002-.002.003-.002.003-.002.002a.422.422 0 0 0-.043.116c-.04.18-.047.374-.058.557-.032.716-.021 2.23-.025 2.965.004.74-.007 2.24.025 2.964.01.183.018.377.058.557.01.04.022.08.043.116l.002.003.002.002.002.003.001.002.002.003.002.002.002.003.002.002.002.002.002.002.001.002.002.002.002.002.002.001.002.002.002.002.002.001.002.002.002.001.002.001.003.002h.002l.002.002h.002l.002.002h.002l.002.001.003.001h.002l.002.001h.002l.003.001h.004l.003.001h.007ZM27.167 21.604a.825.825 0 0 1-.75-.477.853.853 0 0 1-.082-.366v-3.5c0-.018 0-.04.002-.058a.855.855 0 0 1 .393-.66.826.826 0 0 1 1.18.339c.05.1.08.21.087.32l.002.044c.004.006-.003 3.506 0 3.515a.86.86 0 0 1-.083.366.827.827 0 0 1-.75.478ZM7.707 38.59c-2.115.002-3.993-1.41-4.603-3.464a4.972 4.972 0 0 1-.206-1.41v-17.17l.001-.084.002-.084a4.904 4.904 0 0 1 1.262-3.126 4.776 4.776 0 0 1 3.295-1.573c.075-.002.174-.009.249-.007h12.438l.083.003a4.799 4.799 0 0 1 3.32 1.515 4.916 4.916 0 0 1 1.322 3.272c.03.046-.02 17.192 0 17.254v.085l-.002.084a4.99 4.99 0 0 1-.438 1.87 4.857 4.857 0 0 1-2.133 2.277 4.79 4.79 0 0 1-1.655.523c-.075.006-.173.02-.248.024-.075.002-.174.011-.249.01l-.082.001H7.707Z"/><path stroke-width=".5" d="M3.964 39.32a6.558 6.558 0 0 1-2.659-3.52 6.656 6.656 0 0 1-.304-1.988c.003-.144-.003-17.587 0-17.716a6.66 6.66 0 0 1 .304-1.897 6.558 6.558 0 0 1 2.66-3.52c1.002-.93 1.472-2.279 1.791-3.584.322-1.343.513-2.786.671-4.16a1.44 1.44 0 0 1 .106-.387c.144-.337.426-.611.767-.736a15.187 15.187 0 0 1 3.115-.67C11.524 1.01 12.765 1 13.885 1c1.121.002 2.36.01 3.47.142a15.19 15.19 0 0 1 3.114.67c.342.125.623.4.767.736.054.123.09.254.107.387.157 1.374.349 2.816.67 4.16.32 1.305.79 2.654 1.792 3.584a6.562 6.562 0 0 1 2.94 4.953c.027.28.025.606.024.888a.826.826 0 0 1 1.106.297c.08.133.124.288.124.444v3.528a.859.859 0 0 1-.124.415.826.826 0 0 1-1.106.298v4.449h.21v7.377h-.21c0 .318.006.728-.023 1.04a6.562 6.562 0 0 1-2.94 4.954c-1.003.93-1.474 2.278-1.793 3.583-.321 1.343-.512 2.786-.67 4.16a1.44 1.44 0 0 1-.107.387 1.354 1.354 0 0 1-.767.736 15.187 15.187 0 0 1-3.114.67c-1.11.131-2.35.141-3.47.142-1.122-.002-2.36-.01-3.47-.142a15.19 15.19 0 0 1-3.115-.67 1.353 1.353 0 0 1-.767-.736 1.445 1.445 0 0 1-.106-.387c-.157-1.374-.349-2.816-.67-4.16-.32-1.305-.79-2.654-1.793-3.584Z"/></g></svg>