<svg xmlns="http://www.w3.org/2000/svg" width="34" height="40"><path fill="none" fill-rule="evenodd" stroke="#0271E3" stroke-linecap="round" stroke-linejoin="round" stroke-width=".5" d="M32.33 30.614a20.66 20.66 0 0 1-2.043 3.673c-1.074 1.531-1.954 2.592-2.631 3.18-1.05.967-2.177 1.462-3.382 1.49-.865 0-1.909-.246-3.123-.746-1.22-.497-2.34-.744-3.363-.744-1.074 0-2.226.247-3.458.744-1.234.5-2.228.76-2.988.786-1.156.049-2.308-.46-3.458-1.53-.734-.64-1.652-1.738-2.752-3.293-1.18-1.66-2.15-3.586-2.91-5.782C1.408 26.021 1 23.725 1 21.502c0-2.547.55-4.744 1.652-6.584a9.693 9.693 0 0 1 3.46-3.5 9.306 9.306 0 0 1 4.678-1.321c.918 0 2.122.284 3.618.842 1.492.56 2.45.844 2.87.844.314 0 1.378-.332 3.182-.994 1.706-.614 3.146-.868 4.325-.768 3.197.258 5.598 1.518 7.195 3.789-2.859 1.732-4.273 4.159-4.245 7.271.026 2.425.906 4.443 2.634 6.045A8.653 8.653 0 0 0 33 28.852a28.454 28.454 0 0 1-.67 1.762h0ZM24.998 1.76c0 1.9-.694 3.675-2.078 5.318-1.67 1.952-3.69 3.08-5.88 2.902a5.92 5.92 0 0 1-.043-.72c0-1.824.794-3.777 2.204-5.373.704-.809 1.6-1.48 2.685-2.017 1.083-.528 2.108-.82 3.072-.87.028.254.04.508.04.76h0Z"/></svg>