<svg xmlns="http://www.w3.org/2000/svg" width="42" height="50"><g fill="none" fill-rule="evenodd" stroke="#0271E3" stroke-linecap="round" stroke-linejoin="round"><path stroke-width=".5" d="m33.589 2.01-.042-.015-.043-.016-.044-.015-.044-.015-.093-.03-.095-.03-.1-.03-.102-.029-.106-.028-.11-.028-.114-.028-.117-.026-.12-.027-.124-.026-.128-.025-.13-.025-.274-.049-.287-.046-.3-.044-.316-.043-.33-.04-.343-.039-.358-.036-.759-.067-.815-.06-.872-.05-.929-.044-.985-.036-2.141-.047L21 1l-2.368.016-2.14.047-.986.036-.93.043-.871.051-.815.06-.759.067-.358.036-.343.039-.33.04-.315.043-.301.044-.288.046-.272.049-.131.025-.128.025-.124.026-.12.027-.117.026-.114.028-.11.028-.106.028-.103.029-.099.03-.095.03-.093.03-.044.015-.044.015-.043.016-.042.016"/><path stroke-width=".5" d="M1 39.132v.11l.002.11.004.11.004.11.006.111.007.112.008.112.01.112.01.113.013.113.013.113.015.113.017.114.018.114.019.115.02.114.023.115.024.114.025.115.026.115.028.115.03.115.03.116.033.115.034.115.036.115.037.115.039.114.04.115.042.114.043.115.045.114.046.113.048.114.05.113.05.113.053.112.055.112.055.112.057.11.06.111.06.11.061.11.064.108.064.109.067.107.067.107.07.106.07.106.072.104.074.104.075.103.077.102.077.101.08.1.08.1.082.098.083.098.085.096.086.095.087.095.088.093.09.092.09.09.093.09.093.09.094.086.095.087.097.084.097.084.099.082.1.081.1.08.102.078.102.077.103.076.105.074.105.072.105.072.107.07.107.068.109.067.108.065.11.064.11.063.11.061.112.06.112.058.112.056.113.055.113.054.114.052.114.05.115.049.114.047.116.046.115.045.116.042.115.042.116.04.117.038.116.036.116.035.116.034.117.032.117.031.116.03.116.027.117.026.116.025.116.023.116.022.116.02.115.02.116.018.115.016.115.015.115.013.114.012.114.011.113.01.114.008.112.007.113.005.112.005.111.003.111.001.111.001h20.14l.112-.002.111-.003.112-.005.113-.005.112-.007.114-.008.113-.01.114-.01.114-.013.115-.013.115-.015.115-.016.115-.018.116-.02.116-.02.116-.022.116-.023.116-.025.117-.026.116-.028.116-.029.117-.03.116-.033.117-.034.116-.035.116-.036.117-.039.116-.04.115-.04.116-.043.115-.045.115-.046.115-.047.115-.049.114-.05.114-.052.113-.054.113-.055.112-.056.112-.058.111-.06.11-.061.111-.063.11-.064.108-.065.108-.067.108-.068.106-.07.106-.072.105-.072.105-.074.103-.076.102-.077.102-.078.1-.08.1-.08.099-.083.097-.084.097-.084.095-.087.094-.087.093-.088.092-.09.091-.091.09-.092.088-.093.087-.095.086-.095.085-.096.083-.098.082-.098.08-.1.08-.1.077-.1.077-.103.075-.103.074-.104.072-.104.07-.106.07-.106.067-.107.067-.107.064-.109.064-.108.062-.11.06-.11.058-.11.058-.111.055-.112.054-.112.053-.112.051-.113.05-.113.047-.114.047-.113.045-.114.043-.115.042-.114.04-.115.039-.114.037-.115.035-.115.035-.115.032-.115.031-.116.03-.115.028-.115.026-.115.025-.115.024-.114.022-.115.021-.114.02-.115.017-.114.017-.114.015-.113.013-.113.013-.113.01-.113.01-.112.008-.112.007-.112.006-.11.004-.111.003-.11.002-.11.001-.11V9.986l-.002-.09-.003-.09-.003-.091-.005-.091-.006-.092-.006-.092-.008-.092-.01-.093-.01-.092-.01-.093-.013-.093-.013-.094-.015-.094-.016-.093-.017-.094-.018-.095-.02-.094-.02-.094-.022-.095-.023-.094-.024-.095-.026-.094-.026-.095-.029-.094-.029-.094-.03-.095-.032-.094-.033-.094-.034-.094-.036-.094-.037-.094L40.386 7l-.04-.093-.04-.093-.042-.093-.043-.092-.044-.092-.046-.091-.047-.092-.048-.09-.05-.09-.05-.09-.052-.09-.054-.089-.054-.088-.056-.088-.057-.087-.058-.086-.059-.086-.06-.086-.062-.084-.063-.084-.064-.083-.065-.083-.066-.081-.067-.081-.068-.08-.07-.08-.07-.077-.072-.078-.072-.076-.074-.076-.075-.075-.075-.073-.077-.073-.077-.072-.078-.07-.08-.07-.08-.069-.08-.067-.082-.067-.083-.065-.083-.064-.084-.063-.085-.063-.086-.06-.086-.06-.087-.059-.088-.057-.088-.056-.089-.055-.089-.054-.09-.053-.09-.05-.091-.051-.092-.049-.091-.048-.093-.046-.092-.045-.093-.044-.094-.043-.093-.041-.094-.04-.095-.04-.094-.037-.095-.036-.095-.035-.095-.034-.095-.033-.096-.031-.095-.03-.096-.03-.095-.027-.096-.026-.095-.026-.096-.024-.096-.022-.095-.022-.096-.02-.095-.02-.095-.018-.095-.016-.095-.016-.095-.015-.095-.013-.094-.012-.094-.011-.094-.01-.094-.01-.093-.007-.093-.007-.092-.005-.093-.005-.092-.003-.091-.003-.091-.001H9.109l-.092.001-.091.003-.092.003-.093.005-.092.005-.093.007-.093.008-.094.009-.094.01-.094.01-.094.013-.095.013-.095.015-.095.016-.095.016-.095.018-.095.02-.096.02-.095.022-.096.022-.096.024-.095.026-.096.026-.095.028-.096.028-.095.03-.096.032-.095.033-.095.034-.095.035-.095.036-.094.038-.095.039-.094.04-.093.041-.094.043-.093.044-.092.045-.093.046-.091.048-.092.049-.09.05-.091.051-.09.053-.09.054-.088.055-.088.056-.088.057-.087.059-.086.06-.086.06-.085.063-.084.063-.083.064-.083.065-.081.067-.081.067-.08.069-.08.07-.078.07-.078.072-.076.073-.076.073-.074.075-.074.076-.072.076-.072.078-.07.078-.07.079-.068.08-.067.08-.066.082-.065.083-.064.083-.063.084-.062.084-.06.086-.06.086-.058.086-.056.087-.056.088-.054.088-.054.09-.052.088-.05.09-.05.09-.048.091-.047.092-.046.091-.044.092-.043.092-.042.093-.04.093-.04.093-.038.093-.037.094-.036.094-.034.094-.033.094-.032.094-.03.095-.03.094-.028.094-.026.095-.026.094-.024.095-.023.094-.022.095-.02.094-.02.094-.018.095-.017.094-.016.093-.015.094-.013.094-.012.093-.012.093-.01.092-.009.093-.008.092-.006.092-.006.092-.005.09-.003.092-.003.09-.002.09v.09zM8.411 1.973h25.178"/><path stroke-width=".5" d="m8.41 2.01.043-.015.043-.016.044-.015.044-.015.093-.03.095-.03.1-.03.102-.029.106-.028.11-.028.114-.028.117-.026.12-.027.124-.026.128-.025.13-.025.273-.049.288-.046.3-.044.316-.043.33-.04.343-.039.358-.036.759-.067.815-.06.872-.05.929-.044.985-.036 2.141-.047L21 1l2.368.016 2.14.047.986.036.929.043.872.051.815.06.759.067.358.036.343.039.33.04.315.043.301.044.287.046.273.049.131.025.128.025.124.026.12.027.117.026.114.028.11.028.106.028.103.029.099.03.095.03.093.03.044.015.044.015.043.016.042.016.087.008.088.01.088.011.088.012.088.013.089.013.089.015.088.016.09.017.088.017.09.02.088.02.09.02.089.022.09.023.088.024.09.025.089.027.089.027.09.028.088.03.089.03.089.032.088.033.089.034.088.035.088.036.088.037.087.038.087.04.087.04.087.041.086.043.086.044.086.044.085.046.085.047.084.048.084.05.084.05.083.05.082.053.082.053.081.054.081.055.08.057.08.057.079.058.078.06.078.06.077.06.076.063.075.063.075.064.074.065.073.066.073.067.071.067.071.069.07.069.07.07.067.07.068.073.066.072.066.073.064.074.064.075.063.076.062.076.06.076.06.078.059.078.058.079.057.08.055.079.055.08.054.081.052.082.052.082.05.083.05.083.048.083.048.084.046.084.045.085.044.085.043.085.042.086.04.086.04.086.039.087.037.087.036.087.035.087.034.087.033.088.032.088.031.087.03.088.028.088.028.088.026.089.026.088.024.088.023.088.022.088.02.089.02.088.02.088.018.088.016.087.016.088.015.088.014.087.012.087.012.087.01.087.01.087.01.086.007.086.007.086.006.086.005.085.004.085.003.085.002.084.002.084v29.25l-.003.11-.003.11-.004.11-.006.111-.007.112-.008.112-.01.112-.01.113-.013.113-.013.113-.015.113-.017.114-.018.114-.019.115-.02.114-.023.115-.024.114-.025.115-.026.115-.028.115-.03.115-.03.116-.033.115-.035.115-.035.115-.037.115-.039.114-.04.115-.042.114-.043.115-.045.114-.047.113-.047.114-.05.113-.05.113-.054.112-.054.112-.055.112-.058.11-.058.111-.06.11-.062.11-.064.108-.064.109-.067.107-.067.107-.07.106-.07.106-.072.104-.074.104-.075.103-.077.102-.077.101-.08.1-.08.1-.082.098-.083.098-.085.096-.086.095-.087.095-.088.093-.09.092-.09.09-.093.09-.093.09-.094.086-.095.087-.097.084-.097.084-.099.082-.1.081-.1.08-.102.078-.102.077-.103.076-.105.074-.105.072-.106.072-.106.07-.108.068-.108.067-.109.065-.109.064-.11.063-.11.061-.112.06-.112.058-.112.056-.113.055-.113.054-.114.052-.114.05-.115.049-.115.047-.115.046-.115.045-.116.042-.115.042-.116.04-.117.038-.116.036-.116.035-.117.034-.116.032-.117.031-.116.03-.116.027-.117.026-.116.025-.116.023-.116.022-.116.02-.116.02-.115.018-.115.016-.115.015-.115.013-.114.012-.114.011-.113.01-.114.008-.112.007-.113.005-.112.005-.111.003-.111.001-.111.001h-20.14l-.112-.002-.111-.003-.112-.005-.113-.005-.112-.007-.114-.008-.113-.01-.114-.01-.114-.013-.115-.013-.115-.015-.115-.016-.116-.018-.115-.02-.116-.02-.116-.022-.116-.023-.116-.025-.117-.026-.116-.028-.116-.029-.117-.03-.117-.033-.116-.034-.116-.035-.116-.036-.117-.039-.116-.04-.115-.04-.116-.043-.115-.045-.116-.046-.114-.047-.115-.049-.114-.05-.114-.052-.113-.054-.113-.055-.112-.056-.112-.058-.111-.06-.111-.061-.11-.063-.11-.064-.108-.065-.109-.067-.107-.068-.107-.07-.105-.072-.105-.072-.105-.074-.103-.076-.102-.077-.102-.078-.1-.08-.1-.08-.099-.083-.097-.084-.097-.084-.095-.087-.094-.087-.093-.088-.092-.09-.091-.091-.09-.092-.088-.093-.087-.095-.086-.095-.085-.096-.083-.098-.082-.098-.08-.1-.08-.1-.077-.1-.077-.103-.075-.103-.074-.104-.072-.104-.07-.106-.07-.106-.067-.107-.067-.107-.064-.109-.064-.108-.062-.11-.06-.11-.059-.11-.057-.111-.055-.112-.055-.112-.052-.112-.051-.113-.05-.113-.048-.114-.046-.113-.045-.114-.043-.115-.042-.114-.04-.115-.039-.114-.037-.115-.036-.115-.034-.115-.032-.115-.031-.116-.03-.115-.028-.115-.026-.115-.025-.115-.024-.114-.022-.115-.021-.114-.02-.115-.017-.114-.017-.114-.015-.113-.013-.113-.013-.113-.01-.113-.01-.112-.008-.112-.007-.112-.006-.11-.004-.111-.004-.11-.001-.11-.001-.11V9.992l.002-.084.002-.084.003-.085.004-.085.005-.085.006-.086.007-.086.008-.086.008-.086.01-.087.01-.087.012-.087.013-.087.014-.087.015-.088.015-.088.017-.087.018-.088.019-.088.02-.088.021-.089.022-.088.023-.088.024-.088.026-.088.026-.089.028-.088.028-.088.03-.088.03-.087.033-.088.032-.088.035-.087.035-.087.036-.087.037-.087.039-.087.04-.086.04-.086.042-.086.043-.085.044-.085.045-.085.046-.084.048-.084.048-.083.05-.083.05-.083.052-.082.052-.082.054-.08.055-.081.055-.08.057-.08.058-.078.059-.078.06-.078.06-.076.062-.076.063-.076.063-.075.065-.074.066-.073.066-.072.068-.072.068-.071.069-.07.07-.07.07-.068.072-.067.073-.067.073-.066.074-.065.075-.064.075-.063.076-.062.077-.061.078-.06.078-.06.08-.058.079-.057.08-.057.08-.055.082-.054.082-.053.082-.053.083-.05.084-.05.084-.05.084-.048.085-.047.085-.046.086-.044.086-.044.086-.043.087-.041.087-.04.087-.04.087-.038.088-.037.088-.036.088-.035.089-.034.088-.033.09-.032.088-.03.089-.03.089-.028.09-.027.088-.027.09-.025.089-.024.09-.023.088-.022.09-.02.089-.02.089-.02.089-.017.089-.017.088-.016.089-.015.088-.013.089-.013.088-.012.088-.01.087-.01z"/></g></svg>