<svg xmlns="http://www.w3.org/2000/svg" width="50" height="42"><g fill="none" fill-rule="evenodd" stroke="#0271E3" stroke-linecap="round" stroke-linejoin="round"><path stroke-width=".5" d="M25.1 1.05a.05.05 0 1 0-.1 0 .05.05 0 0 0 .1 0Z"/><path stroke-width=".5" d="M1.011 1.794c0-.433.352-.792.79-.791.11.007 46.417-.015 46.517.007a.792.792 0 0 1 .675.688c.003.032.007.064.006.096-.003.068.006 31.4-.003 31.462a.795.795 0 0 1-.664.714c-.041.084-46.46-.04-46.531.01a.791.791 0 0 1-.789-.75c-.037-.02.025-31.408 0-31.436ZM1 29.05h48"/><path stroke-width=".5" d="M2 2h46v26H2zM19 41h1v1h-1zM29 41h1v1h-1z"/><path stroke-width=".5" d="M19 41h11v1H19zM19.05 41v-7M31.05 34v7"/><path stroke-width=".5" d="M19.48 40.906V41h1.414v-.094h8.212V41h1.413v-.094h.215V33.55c.026-.003 17.478.002 17.502 0a.805.805 0 0 0 .31-.075.788.788 0 0 0 .453-.68v-4.028c.003-.007-.002-26.983 0-26.99a.812.812 0 0 0-.042-.242.782.782 0 0 0-.712-.529c-.025-.018-46.447.011-46.481 0a.796.796 0 0 0-.567.265.78.78 0 0 0-.196.49C.999 1.783 1 32.741 1 32.768a.778.778 0 0 0 .49.722.8.8 0 0 0 .283.058c.001.013 17.485-.008 17.492 0v7.356h.216Z"/></g></svg>