<svg xmlns="http://www.w3.org/2000/svg" width="37" height="50"><g fill="none" fill-rule="evenodd" stroke="#0271E3" stroke-linecap="round" stroke-linejoin="round"><path stroke-width=".5" d="M3.932 3.537a.385.385 0 0 0-.295-.375.39.39 0 0 0-.486.378.39.39 0 0 0 .781-.003ZM19.1 46.679a.366.366 0 0 1 .28-.356.37.37 0 0 1 .463.353.37.37 0 0 1-.742.003ZM17.986 46.679a.366.366 0 0 0-.28-.356.371.371 0 0 0-.462.353.37.37 0 0 0 .742.003ZM18.915 46.679a.365.365 0 0 0-.28-.356.37.37 0 0 0-.463.353.37.37 0 0 0 .743.003ZM20.407 23.635a1.402 1.402 0 0 1 .14-.63c.126-.258.328-.479.57-.636l.026-.016a1.5 1.5 0 0 0-.422-.41 1.679 1.679 0 0 0-.824-.258c-.202-.02-.405.02-.597.081-.184.057-.4.16-.587.21a.487.487 0 0 1-.125.018.936.936 0 0 1-.285-.07l-.28-.107a1.736 1.736 0 0 0-.45-.112 1.533 1.533 0 0 0-.55.067 1.685 1.685 0 0 0-.805.548 1.883 1.883 0 0 0-.334.633c-.278.906.02 2.028.501 2.822.136.214.288.427.456.618.146.162.319.317.534.376a.81.81 0 0 0 .411-.01c.112-.026.26-.093.367-.137.242-.101.51-.133.77-.085.146.026.3.095.436.153.079.033.161.061.246.077a.887.887 0 0 0 .379-.007c.337-.09.563-.383.758-.651.237-.321.434-.678.56-1.055l.019-.057-.012-.004a1.552 1.552 0 0 1-.697-.606 1.465 1.465 0 0 1-.205-.752M18.54 21.609c.206.015.412-.042.592-.138.255-.135.461-.351.597-.603a1.39 1.39 0 0 0 .175-.812 1.349 1.349 0 0 0-.554.162 1.514 1.514 0 0 0-.578.52c-.166.255-.272.565-.232.87Z"/><path stroke-width=".5" d="M5.946 1.123v-.1h-2.41M3.162 1.074v.078M3.535 1.024c-.126 0-.255.008-.375.052M4.724 3.537a1.174 1.174 0 0 0-.892-1.135 1.18 1.18 0 0 0-1.473 1.145A1.18 1.18 0 0 0 3.832 4.67c.522-.13.893-.602.892-1.134ZM3.795 6.434a.25.25 0 0 0-.191-.244.257.257 0 0 0-.221.047.251.251 0 0 0 .003.396.257.257 0 0 0 .356-.045.25.25 0 0 0 .053-.154Z"/><path stroke-width=".5" d="M4.568 3.537a1.019 1.019 0 0 0-.775-.985 1.025 1.025 0 0 0-1.278.976 1.024 1.024 0 0 0 1.278.993c.454-.112.776-.522.775-.984ZM1 5.089h1v2.224H1zM1 7.792h1v2.224H1z"/><path stroke-width=".5" d="M33.546 48.999a2.45 2.45 0 0 0 2.2-1.369 2.416 2.416 0 0 0 .237-.882c.002-.038.005-.086.005-.125.036-.016-.024-43.06 0-43.086.001-.375-.089-.752-.26-1.087a2.45 2.45 0 0 0-2.182-1.33H3.499c-.066.003-.144.004-.21.013a2.466 2.466 0 0 0-1.1.392A2.406 2.406 0 0 0 1.104 3.37c-.003.038-.007.086-.007.124-.035.016.025 43.06 0 43.087v.041l.002.042.001.042.003.041c.018.263.081.525.184.768a2.434 2.434 0 0 0 1.751 1.431c.123.025.25.043.376.049.037.003.089.002.126.003h30.005Z"/><path stroke-width=".5" d="M5.946 1.12c.024-.006 27.604.003 27.626 0h.028c.022.002.059.001.082.003a2.489 2.489 0 0 1 .986.266c.528.27.95.736 1.16 1.286.096.249.15.514.16.781.02.12-.012 43.041 0 43.18a2.402 2.402 0 0 1-1.08 1.953c-.4.265-.88.411-1.363.41-.025.003-30.007-.003-30.03 0-.053-.002-.113-.003-.166-.008a2.501 2.501 0 0 1-.985-.291 2.412 2.412 0 0 1-1.254-1.874c-.005-.062-.01-.128-.012-.19-.037-.034.026-36.578 0-36.62H1V7.792h.098v-.48H1V5.09h.098V3.537c0-.04 0-.082.003-.12l.001-.025a2.405 2.405 0 0 1 .601-1.448 2.456 2.456 0 0 1 1.457-.795v-.075a.902.902 0 0 1 .237-.046c.044-.004.094-.005.138-.005h2.41v.096h0Z"/></g></svg>