<svg xmlns="http://www.w3.org/2000/svg" width="35" height="50"><g fill="none" fill-rule="evenodd" stroke="#0271E3" stroke-linecap="round" stroke-linejoin="round"><path stroke-width=".5" d="M17.507 22.344c.239.018.478-.051.685-.167.262-.145.477-.366.626-.625.17-.293.264-.64.227-.98-.22.01-.432.084-.625.186a1.711 1.711 0 0 0-.64.576c-.194.295-.319.654-.273 1.01ZM19.612 24.655a1.617 1.617 0 0 1 .165-.734c.148-.297.383-.552.664-.728a1.701 1.701 0 0 0-.462-.459 1.874 1.874 0 0 0-.942-.303 1.656 1.656 0 0 0-.673.093c-.204.063-.447.18-.653.237a.562.562 0 0 1-.15.022 1.047 1.047 0 0 1-.321-.08l-.316-.122c-.16-.06-.325-.11-.495-.127a1.67 1.67 0 0 0-.546.052c-.4.103-.76.347-1.013.673-.155.2-.27.428-.348.668-.33 1.037.01 2.339.556 3.25.133.214.285.427.444.623.18.216.394.432.672.511a.903.903 0 0 0 .464-.01c.125-.031.292-.108.413-.157a1.52 1.52 0 0 1 .868-.097c.165.029.337.108.491.174.086.036.176.068.268.086.094.018.19.025.286.018.454-.033.76-.424 1.006-.768a4.32 4.32 0 0 0 .632-1.203l.02-.064-.013-.006a1.758 1.758 0 0 1-.776-.674 1.684 1.684 0 0 1-.241-.875"/><path stroke-width=".5" d="M4.504 4.185a.442.442 0 0 0-.332-.427.44.44 0 1 0 .332.427Z"/><path stroke-width=".5" d="M4.064 48.998a3.063 3.063 0 0 1-3.059-3.01c-.015-.134.01-41.717 0-41.856l.001-.052.003-.053.003-.053.004-.053a3.068 3.068 0 0 1 3.048-2.799c.15.06 26.844-.045 26.977.003a3.067 3.067 0 0 1 2.673 1.78 3.08 3.08 0 0 1 .28 1.227c.016.134-.009 41.717 0 41.856v.053l-.003.053a3.113 3.113 0 0 1-.195.928 3.07 3.07 0 0 1-2.18 1.9c-.17.038-.347.063-.522.072-.048.002-.11.004-.158.004H4.064Z"/><path stroke-width=".5" d="M4.064 1h4.283v1H4.064zM28.372 1h2.447v1h-2.447zM25.436 1h2.447v1h-2.447zM5.355 4.185a1.293 1.293 0 1 0-2.58 0 1.293 1.293 0 0 0 2.58 0Z"/><path stroke-width=".5" d="M5.533 4.185a1.47 1.47 0 1 0-2.938-.002 1.47 1.47 0 0 0 2.938.002ZM4.502 7.825a.44.44 0 0 0-.33-.426.44.44 0 1 0 .33.426ZM4.186 6.577a.123.123 0 0 0-.197-.098.123.123 0 0 0 0 .195.123.123 0 0 0 .197-.097Z"/><path stroke-width=".5" d="M4.064 1.122V1h4.283v.122h17.089V1h2.447v.122h.49V1h2.447v.122H30.97a3.083 3.083 0 0 1 .7.09 3.065 3.065 0 0 1 2.322 2.837l.002.034.001.068c.003.02-.001 41.758 0 41.785a3.09 3.09 0 0 1-.099.771 3.068 3.068 0 0 1-2.65 2.275c-.102.01-.207.017-.31.016-.03.006-26.877-.004-26.906 0-.066-.002-.14-.003-.206-.01a3.061 3.061 0 0 1-2.82-3.053c.002-.102-.002-41.758.002-41.852a3.097 3.097 0 0 1 .243-1.096 3.062 3.062 0 0 1 2.815-1.865Z"/></g></svg>