<svg xmlns="http://www.w3.org/2000/svg" width="26" height="50"><g fill="none" fill-rule="evenodd" stroke="#0271E3" stroke-linecap="round" stroke-linejoin="round"><path stroke-width=".5" d="M20.96 48.65a3.537 3.537 0 0 0 2.784-1.353 3.474 3.474 0 0 0 .71-1.757c.01-.097.017-.201.018-.298.032-.013-.021-40.396.001-40.425v-.06l-.002-.06-.003-.06a3.451 3.451 0 0 0-.293-1.216 3.503 3.503 0 0 0-1.913-1.825 3.57 3.57 0 0 0-1.06-.239c-.055-.003-.128-.007-.182-.008-.044-.035-15.927.025-15.98 0a3.572 3.572 0 0 0-1.359.27A3.513 3.513 0 0 0 2.15 2.847a3.445 3.445 0 0 0-.62 1.85c-.048.042.03 40.414-.002 40.485v.06l.002.06.003.06a3.46 3.46 0 0 0 1.823 2.863 3.556 3.556 0 0 0 1.565.423l.06.001h15.98Z"/><path stroke-width=".5" d="M12.851 13.19a.883.883 0 0 0 .477-.111 1.18 1.18 0 0 0 .475-.473 1.12 1.12 0 0 0 .148-.665 1.088 1.088 0 0 0-.447.13 1.22 1.22 0 0 0-.458.407c-.138.208-.228.46-.195.711ZM14.356 14.819a1.126 1.126 0 0 1 .118-.517c.106-.21.274-.39.475-.514a1.207 1.207 0 0 0-.349-.335 1.358 1.358 0 0 0-.655-.202 1.201 1.201 0 0 0-.481.065c-.146.045-.32.127-.467.168a.394.394 0 0 1-.113.015.78.78 0 0 1-.224-.056l-.226-.086a1.4 1.4 0 0 0-.363-.09 1.229 1.229 0 0 0-.402.042 1.356 1.356 0 0 0-.69.453c-.123.15-.212.325-.27.509-.223.728.017 1.63.405 2.269.106.167.225.333.355.483.12.136.263.267.443.317.108.03.224.019.332-.008.09-.021.209-.076.295-.11.196-.082.41-.107.62-.069.119.02.242.077.352.123.064.026.13.05.198.062.096.017.195.02.29-.002.28-.066.467-.308.627-.528.19-.258.35-.544.452-.847l.015-.046-.01-.004a1.25 1.25 0 0 1-.562-.487 1.18 1.18 0 0 1-.165-.605"/><path stroke-width=".5" d="M20.96 48.997a3.89 3.89 0 0 0 3.062-1.489 3.818 3.818 0 0 0 .766-1.801 3.93 3.93 0 0 0 .034-.393c.051-.05-.032-40.417.002-40.497v-.066l-.002-.066a3.808 3.808 0 0 0-.204-1.097 3.839 3.839 0 0 0-1.863-2.149 3.923 3.923 0 0 0-1.796-.437c-.07.014-15.92-.01-15.985 0A3.878 3.878 0 0 0 1.75 2.815a3.794 3.794 0 0 0-.574 1.937c-.011.148.007 40.344 0 40.497l.002.066.003.065.004.066c.037.525.186 1.044.434 1.51a3.854 3.854 0 0 0 2.627 1.96c.15.03.31.055.462.067.06.008.14.008.2.012l.133.003H20.96Z"/><path stroke-width=".5" d="M24.824 11.209h1v3.555h-1zM24.824 15.457h1v3.555h-1zM24.824 7.049h1v1.994h-1zM1 11.209h1v3.555H1zM6.11 4.352a1.305 1.305 0 0 0-.995-1.261c-.829-.205-1.632.406-1.641 1.25-.006.852.803 1.479 1.641 1.271.583-.144.995-.668.994-1.26Z"/><path stroke-width=".5" d="M6.548 4.352A1.732 1.732 0 0 0 5.752 2.9a1.77 1.77 0 0 0-2.56.735c-.21.448-.21.985 0 1.434a1.77 1.77 0 0 0 2.56.734c.494-.315.799-.871.796-1.451ZM7.786 4.352a.269.269 0 0 0-.207-.263.274.274 0 0 0-.342.26.274.274 0 0 0 .491.169.269.269 0 0 0 .058-.166ZM9.822 4.352a.64.64 0 0 0-.488-.619.645.645 0 0 0-.805.613.645.645 0 0 0 .805.624.64.64 0 0 0 .488-.618Z"/><path stroke-width=".5" d="M24.824 7.05H25v1.993h-.176v2.166H25v3.555h-.176v.693H25v3.555h-.176c0 .085.002 26.177 0 26.255a3.894 3.894 0 0 1-.124.876 3.801 3.801 0 0 1-.648 1.327 3.88 3.88 0 0 1-3.007 1.526c-.024.012-15.957-.007-16.004 0-.053 0-.119 0-.172-.003a3.94 3.94 0 0 1-1.732-.491 3.849 3.849 0 0 1-1.435-1.398 3.798 3.798 0 0 1-.524-1.795c-.002-.02 0-.064-.002-.085-.03-.052.021-30.408 0-30.46H1v-3.555h.176V4.775c.002-.054.002-.117.006-.171.007-.115.018-.235.036-.349l.007-.044a3.8 3.8 0 0 1 .945-1.948 3.871 3.871 0 0 1 2.568-1.249 4.28 4.28 0 0 1 .26-.012h16.004a3.975 3.975 0 0 1 .66.064 3.89 3.89 0 0 1 2.03 1.054 3.806 3.806 0 0 1 1.129 2.527c0 .037.004.09.003.128v2.274Z"/></g></svg>