<svg xmlns="http://www.w3.org/2000/svg" width="26" height="50"><g fill="none" fill-rule="evenodd" stroke="#0271E3" stroke-linecap="round" stroke-linejoin="round"><path stroke-width=".5" d="M5.058 48.675a3.584 3.584 0 0 1-2.999-1.61 3.474 3.474 0 0 1-.562-1.886V4.763l.002-.06.003-.06.003-.06.005-.061c.023-.259.076-.52.157-.767a3.522 3.522 0 0 1 1.736-2.027 3.628 3.628 0 0 1 1.348-.387c.077-.005.168-.013.245-.013.134-.022 15.922.014 16.057 0l.062.002.061.002.061.004a3.58 3.58 0 0 1 2.753 1.602 3.463 3.463 0 0 1 .562 1.825c-.016.236.015 40.316-.001 40.537a3.453 3.453 0 0 1-.325 1.341 3.536 3.536 0 0 1-1.69 1.688 3.639 3.639 0 0 1-1.237.333c-.055.004-.13.01-.184.01l-.062.002H5.058Z"/><path stroke-width=".5" d="M14.808 24.446a1.3 1.3 0 0 1 .137-.6c.124-.244.32-.452.554-.595a1.404 1.404 0 0 0-.396-.382 1.587 1.587 0 0 0-.774-.241c-.19-.02-.381.018-.561.076-.173.052-.377.149-.552.195a.46.46 0 0 1-.118.016.884.884 0 0 1-.267-.064l-.263-.1a1.641 1.641 0 0 0-.423-.105 1.45 1.45 0 0 0-.517.063c-.297.09-.562.273-.756.51a1.751 1.751 0 0 0-.314.59c-.261.845.018 1.892.47 2.632.129.2.272.398.429.576.137.151.3.296.502.351.126.035.26.022.387-.009.104-.024.244-.087.344-.128.228-.094.48-.124.723-.08.138.025.282.09.41.144.074.03.152.057.231.071a.84.84 0 0 0 .356-.007c.318-.083.53-.357.713-.607.222-.3.407-.631.526-.983l.018-.053-.012-.004a1.451 1.451 0 0 1-.663-.58 1.36 1.36 0 0 1-.184-.686M13.054 22.556c.193.015.386-.038.555-.128.24-.126.435-.328.562-.563.126-.23.194-.495.164-.756-.182.008-.36.068-.52.151a1.42 1.42 0 0 0-.534.47c-.162.242-.265.536-.227.826ZM24.553 43.804h.331M24.553 44.292h.331M24.553 6.202h.331M24.553 5.714h.331M1.166 44.292h.331M1.166 43.804h.331M1.166 6.202h.331M1.166 5.714h.331M2.01 9.376a3.313 3.313 0 0 0 1.758 2.91c.425.229.904.366 1.388.399.104.016 4.497.007 4.656.006a3.41 3.41 0 0 0 2.167-.87 3.312 3.312 0 0 0 1.094-2.33c-.001-.25.015-4.43-.011-4.628a3.286 3.286 0 0 0-.586-1.599 3.385 3.385 0 0 0-2.605-1.428c-.275-.004-4.536-.017-4.773.008a3.436 3.436 0 0 0-1.227.341A3.342 3.342 0 0 0 2.155 4.19c-.073.236-.12.485-.137.73-.002.052-.007.121-.007.172v4.285Z"/><path stroke-width=".5" d="M10.789 9.376a1.078 1.078 0 0 0-.825-1.04c-.687-.17-1.354.335-1.362 1.03-.004.704.667 1.222 1.362 1.05.483-.118.826-.551.825-1.04ZM4.296 5.149c-.001.488.342.921.825 1.04.687.17 1.354-.335 1.361-1.031.005-.704-.666-1.221-1.361-1.05a1.079 1.079 0 0 0-.825 1.04ZM10.509 4.657a.303.303 0 0 0-.066-.189.313.313 0 0 0-.17-.108.311.311 0 0 0-.388.294c-.002.2.19.349.388.3a.313.313 0 0 0 .17-.11.303.303 0 0 0 .066-.187Z"/><path stroke-width=".5" d="M11.008 4.657a.8.8 0 0 0-.612-.773.809.809 0 0 0-1.01.766.809.809 0 0 0 1.01.779.8.8 0 0 0 .612-.772ZM5.8 1.328v-.326M6.297 1.328v-.326M20.254 49v-.325M19.757 49v-.325"/><path stroke-width=".5" d="M5.058 49a3.915 3.915 0 0 1-3.313-1.816 3.793 3.793 0 0 1-.574-1.807c-.003-.033-.003-.1-.005-.132-.034-.015.024-40.389 0-40.422a3.783 3.783 0 0 1 .208-1.23A3.854 3.854 0 0 1 3.308 1.41a3.963 3.963 0 0 1 1.615-.405l.067-.002h.067c.071.013 15.936-.01 16 0a3.905 3.905 0 0 1 3.281 1.872 3.782 3.782 0 0 1 .545 1.948v40.422l-.002.066-.003.066-.004.066-.006.065a3.78 3.78 0 0 1-.463 1.505 3.873 3.873 0 0 1-1.786 1.637 3.98 3.98 0 0 1-1.293.336c-.06.007-.141.008-.201.012l-.067.001-.067.001H5.058Z"/><path stroke-width=".5" d="M1 15.648h1v5.853H1zM24.884 17.388h1v3.837h-1zM24.884 12.641h1v3.837h-1zM24.884 10.077h1v1.87h-1zM2.408 9.376a2.926 2.926 0 0 0 1.641 2.615c.352.173.741.278 1.135.305.172.012 4.474.01 4.666.003a2.993 2.993 0 0 0 2.177-1.098 2.907 2.907 0 0 0 .65-1.825V5.15c-.002-.025 0-.077-.002-.101a2.901 2.901 0 0 0-.556-1.603 2.985 2.985 0 0 0-1.512-1.083 3.046 3.046 0 0 0-.911-.14H5.338c-.046.002-.11.003-.154.007a3.058 3.058 0 0 0-.558.09c-.976.251-1.77.991-2.075 1.935a2.898 2.898 0 0 0-.143.844v4.278Z"/><path stroke-width=".5" d="M10.342 9.376c0-.14-.049-.28-.137-.39a.648.648 0 0 0-.35-.225.644.644 0 0 0-.805.62c.004.411.398.71.804.61a.649.649 0 0 0 .351-.225.628.628 0 0 0 .137-.39Z"/><path stroke-width=".5" d="M11.816 9.376a2.076 2.076 0 0 0-.96-1.742c-1.09-.697-2.552-.28-3.09.881a2.053 2.053 0 0 0 0 1.722c.538 1.16 2 1.577 3.09.881a2.076 2.076 0 0 0 .96-1.742Z"/><path stroke-width=".5" d="M12.147 9.376a2.4 2.4 0 0 0-1.11-2.015c-1.26-.804-2.95-.322-3.573 1.02a2.373 2.373 0 0 0 0 1.99c.624 1.342 2.313 1.824 3.572 1.02a2.4 2.4 0 0 0 1.111-2.015ZM3.27 5.149a2.076 2.076 0 0 0 .96 1.742c1.088.696 2.55.279 3.09-.882a2.053 2.053 0 0 0 0-1.721c-.54-1.16-2.002-1.578-3.09-.882a2.076 2.076 0 0 0-.96 1.743Z"/><path stroke-width=".5" d="M2.938 5.149a2.4 2.4 0 0 0 1.11 2.014c1.26.805 2.95.323 3.573-1.02a2.373 2.373 0 0 0 0-1.99C6.997 2.811 5.308 2.33 4.048 3.134a2.4 2.4 0 0 0-1.11 2.015ZM5.012 9.547a.322.322 0 0 0-.07-.2.333.333 0 0 0-.18-.115.33.33 0 0 0-.412.312.33.33 0 0 0 .413.318.323.323 0 0 0 .25-.315ZM11.258 4.657a1.047 1.047 0 0 0-.8-1.01c-.668-.165-1.315.325-1.322 1-.005.683.647 1.185 1.321 1.019.469-.115.802-.535.8-1.01Z"/><path stroke-width=".5" d="M4.842 5.149c0 .118.041.236.116.33a.55.55 0 0 0 .297.19.545.545 0 0 0 .681-.516.545.545 0 0 0-.681-.525.55.55 0 0 0-.297.19.532.532 0 0 0-.116.33Z"/><path stroke-width=".5" d="M5.058 49h15.934c.034 0 .1 0 .134-.002a3.964 3.964 0 0 0 1.494-.348 3.868 3.868 0 0 0 1.879-1.813 3.797 3.797 0 0 0 .383-1.526l.002-.132V21.225H25v-3.838h-.116v-.909H25v-3.837h-.116v-.695H25v-1.87h-.116V4.758c-.004-.059-.004-.138-.01-.197a3.812 3.812 0 0 0-1.107-2.415 3.914 3.914 0 0 0-2.775-1.143H5.058c-.65 0-1.299.163-1.868.47-.53.283-.993.692-1.335 1.18a3.791 3.791 0 0 0-.675 1.842c-.003.058-.012.14-.012.197 0 .032-.003.1-.002.132v10.825H1V21.5h.166c0 .238-.004 23.582.002 23.81a3.804 3.804 0 0 0 .65 1.984A3.918 3.918 0 0 0 5.057 49Z"/></g></svg>