<svg xmlns="http://www.w3.org/2000/svg" width="26" height="50"><g fill="none" fill-rule="evenodd" stroke="#0271E3" stroke-linecap="round" stroke-linejoin="round"><g stroke-width=".5"><path d="M12.586 8.539a.843.843 0 0 0-.681-.819c-.533-.108-1.032.288-1.033.819 0 .53.5.927 1.033.818a.843.843 0 0 0 .68-.818Z"/><path d="M1.938 11.811c-.002 1.383.846 2.652 2.143 3.206a3.67 3.67 0 0 0 1.382.296H12.04l.061-.002a3.674 3.674 0 0 0 1.206-.247 3.536 3.536 0 0 0 2.153-2.415 3.46 3.46 0 0 0 .1-.656c.001-.055.005-.127.004-.182V5.206a3.45 3.45 0 0 0-.782-2.123 3.591 3.591 0 0 0-2.188-1.266 3.764 3.764 0 0 0-.43-.048c-.056-.001-.13-.005-.186-.004H5.525c-1.303-.003-2.523.702-3.146 1.82a3.473 3.473 0 0 0-.432 1.44c-.002.054-.008.127-.008.18v6.606Z"/><path d="M12.766 13.135a1.02 1.02 0 0 1-.824.991c-.645.131-1.25-.348-1.25-.99 0-.644.605-1.123 1.25-.992.478.097.825.514.824.991ZM12.045 4.223c0-.07-.026-.14-.071-.194a.318.318 0 0 0-.18-.107.314.314 0 0 0-.38.301c0 .196.184.342.38.302a.318.318 0 0 0 .183-.11.304.304 0 0 0 .068-.192Z"/><path d="M12.55 4.223a.806.806 0 0 0-.624-.778c-.518-.124-1.017.258-1.018.778 0 .521.5.903 1.018.778a.807.807 0 0 0 .624-.778ZM6.449 5.266a.908.908 0 0 1-.697.874c-.58.143-1.145-.281-1.15-.866-.005-.591.563-1.026 1.15-.882.408.1.698.464.697.874Z"/><path d="M7.186 5.266a1.632 1.632 0 0 1-1.253 1.572c-1.046.256-2.057-.506-2.07-1.558-.006-1.064 1.013-1.845 2.07-1.586.734.18 1.255.833 1.253 1.572ZM6.784 11.811a1.237 1.237 0 0 0-.95-1.191c-.8-.197-1.573.396-1.568 1.202.009.797.777 1.375 1.568 1.181.556-.136.952-.632.95-1.192ZM19.519 48.988v-.261M19.854 48.988v-.261M6.486 1.274v-.262M6.15 1.274v-.262M24.833 6.204h-.268M24.833 5.877h-.268M24.833 43.8h-.268M24.833 44.128h-.268M1.436 6.204h-.268M1.436 5.877h-.268M1.436 43.8h-.268M1.436 44.128h-.268M14.783 25.178a1.304 1.304 0 0 1 .14-.604c.125-.245.323-.454.56-.599a1.417 1.417 0 0 0-.4-.384 1.611 1.611 0 0 0-.784-.243 1.43 1.43 0 0 0-.568.077c-.175.053-.381.15-.558.197a.471.471 0 0 1-.12.016.898.898 0 0 1-.27-.065l-.266-.101a1.666 1.666 0 0 0-.428-.105 1.477 1.477 0 0 0-.523.063c-.3.091-.569.275-.765.514-.145.175-.25.38-.318.594-.264.85.019 1.903.477 2.648.13.2.274.4.433.58.139.152.303.297.508.353a.78.78 0 0 0 .391-.009c.106-.025.247-.088.349-.129.23-.095.485-.125.731-.08.14.024.285.09.415.144.075.03.154.057.234.072a.856.856 0 0 0 .36-.007c.321-.084.536-.36.722-.61.224-.302.412-.636.532-.99l.018-.053-.012-.005a1.465 1.465 0 0 1-.67-.583 1.361 1.361 0 0 1-.188-.691M13.009 23.277c.195.014.39-.04.562-.13.243-.126.44-.33.568-.566.128-.23.196-.498.166-.761a1.295 1.295 0 0 0-.527.152 1.434 1.434 0 0 0-.54.474c-.163.243-.268.538-.23.83Z"/><path d="M5.19 48.726c-1.295.003-2.519-.663-3.196-1.742a3.624 3.624 0 0 1-.553-1.733c-.002-.06-.006-.132-.005-.19V4.876a3.618 3.618 0 0 1 .291-1.354A3.716 3.716 0 0 1 3.62 1.61a3.842 3.842 0 0 1 1.311-.327c.058-.007.137-.006.194-.009.132-.02 15.615.013 15.75 0 .257.005.52.036.77.092a3.751 3.751 0 0 1 2.49 1.87c.24.447.385.946.42 1.45.003.059.009.132.009.19.011.143-.006 40.1 0 40.249a3.619 3.619 0 0 1-.524 1.806 3.735 3.735 0 0 1-1.719 1.486 3.86 3.86 0 0 1-1.187.296c-.081.01-.178.01-.26.013-.046.037-15.628-.025-15.684 0Z"/></g><g stroke-width=".5"><path d="M12.33 8.539a.593.593 0 0 0-.547-.584.596.596 0 0 0-.655.584c0 .341.3.611.648.585a.593.593 0 0 0 .554-.585Z"/><path d="M13.976 8.539a2.184 2.184 0 0 0-1.018-1.836c-1.173-.746-2.747-.28-3.297.978a2.15 2.15 0 0 0 0 1.716c.55 1.257 2.124 1.724 3.297.978a2.184 2.184 0 0 0 1.018-1.836Z"/><path d="M14.327 8.539a2.526 2.526 0 0 0-1.204-2.14c-1.346-.832-3.128-.303-3.772 1.119a2.489 2.489 0 0 0 0 2.042c.644 1.422 2.426 1.95 3.772 1.12a2.526 2.526 0 0 0 1.204-2.141ZM13.789 11.952c0 .028-.011.056-.03.077a.12.12 0 0 1-.166.008.113.113 0 0 1-.001-.17.12.12 0 0 1 .165.007c.02.021.032.05.032.078ZM12.803 4.223a1.057 1.057 0 0 0-.904-1.034c-.652-.102-1.243.39-1.243 1.034 0 .64.583 1.13 1.231 1.037.524-.075.916-.52.916-1.037Z"/><path d="M2.508 11.811c-.002 1.23.793 2.342 1.976 2.765a3.089 3.089 0 0 0 .974.18H11.978c1.287.003 2.444-.806 2.856-1.997a2.891 2.891 0 0 0 .16-.915c.004-.07-.002-6.54 0-6.61a2.912 2.912 0 0 0-.75-1.911 3.017 3.017 0 0 0-1.017-.738 3.082 3.082 0 0 0-1.182-.263c-.017-.002-.05 0-.067-.001-.037.008-6.455-.006-6.486 0a3.093 3.093 0 0 0-.867.134A2.995 2.995 0 0 0 2.72 4.182a2.896 2.896 0 0 0-.211 1.019v6.61Z"/><path d="M6.126 5.266a.58.58 0 0 1-.127.36.604.604 0 0 1-.326.209.598.598 0 0 1-.749-.574.598.598 0 0 1 .749-.563.604.604 0 0 1 .326.208.58.58 0 0 1 .127.36Z"/><path d="M7.772 5.266a2.186 2.186 0 0 1-1.018 1.837c-1.154.733-2.703.294-3.274-.93a2.153 2.153 0 0 1 0-1.814c.57-1.223 2.12-1.663 3.274-.93.63.4 1.02 1.103 1.018 1.837Z"/><path d="M8.123 5.266c.003.85-.447 1.66-1.177 2.123-1.334.849-3.125.34-3.786-1.074a2.488 2.488 0 0 1 0-2.098c.661-1.415 2.452-1.923 3.786-1.074a2.527 2.527 0 0 1 1.177 2.123ZM6.126 11.811a.58.58 0 0 0-.127-.36.604.604 0 0 0-.326-.208.598.598 0 0 0-.749.574c.004.38.371.656.749.563a.604.604 0 0 0 .326-.208.58.58 0 0 0 .127-.36Z"/><path d="M7.772 11.811a2.186 2.186 0 0 0-1.018-1.836c-1.154-.734-2.703-.294-3.274.93a2.153 2.153 0 0 0 0 1.814c.57 1.223 2.12 1.663 3.274.929a2.185 2.185 0 0 0 1.018-1.837Z"/><path d="M8.123 11.811a2.526 2.526 0 0 0-1.177-2.123c-1.334-.848-3.125-.34-3.786 1.074-.31.658-.31 1.441 0 2.099.661 1.414 2.452 1.922 3.786 1.074a2.527 2.527 0 0 0 1.177-2.124ZM24.832 9.857h1v2.209h-1zM24.832 13.703h1v3.763h-1zM24.832 18.448h1v3.763h-1zM1 16.321h1v5.891H1z"/><path d="M5.19 48.988a4.065 4.065 0 0 1-3.188-1.532 3.872 3.872 0 0 1-.834-2.327c-.022-.307.012-40.03.002-40.326a3.88 3.88 0 0 1 .26-1.257 3.975 3.975 0 0 1 2.015-2.145 4.113 4.113 0 0 1 1.676-.389c.05-.038 15.63.027 15.69 0h.069c.229.005.464.028.69.07 1.192.22 2.24.98 2.802 2.032.247.46.4.97.446 1.486.006.087.013.185.014.271.035.016-.024 40.156 0 40.19a3.875 3.875 0 0 1-.527 1.944 4 4 0 0 1-1.876 1.651 4.133 4.133 0 0 1-1.272.318c-.087.01-.19.01-.277.014-.05.038-15.63-.027-15.69 0Z"/></g><path stroke-width=".5" d="M24.832 9.857V4.871c-.004-.06-.003-.142-.01-.203a3.911 3.911 0 0 0-1.144-2.482 4.05 4.05 0 0 0-2.729-1.172 6.766 6.766 0 0 0-.139-.002H5.19c-.694 0-1.389.179-1.991.515-.523.29-.978.698-1.32 1.181a3.884 3.884 0 0 0-.702 1.96c-.002.06-.01.143-.009.203v11.45H1v5.89h.168v22.85c-.002.034.002.102.002.136a3.884 3.884 0 0 0 .67 2.04 4.011 4.011 0 0 0 1.795 1.446 4.12 4.12 0 0 0 1.486.305c.025.008 15.647-.005 15.69 0a4.117 4.117 0 0 0 1.555-.305 4.011 4.011 0 0 0 1.793-1.447 3.884 3.884 0 0 0 .671-2.04c0-.032.004-.102.002-.135v-22.85H25v-3.763h-.168v-.982H25v-3.763h-.168v-1.637H25V9.857h-.168 0Z"/></g></svg>