<svg xmlns="http://www.w3.org/2000/svg" width="56" height="56"><g fill="none" fill-rule="evenodd"><path fill="none" d="M0 0h56v56H0z"/><path fill="#0271E3" d="M13.713 12.73c.459.034.942.083 1.45.149.491.082 1 .181 1.523.296a24.73 24.73 0 0 1 1.622.469c.557.197 1.13.42 1.72.666.59.231 1.204.502 1.843.815.623.296 1.261.642 1.917 1.037.475.263.966.55 1.474.863a17.143 17.143 0 0 1 .54.346c.345.197.68.411 1.008.642l.147.098c.066.033.123.066.172.1l.27.197c.181.115.36.246.541.394-.491-.082-.966-.14-1.425-.172a12.661 12.661 0 0 0-.786-.025 6.105 6.105 0 0 0-.565-.025h-.05a13.8 13.8 0 0 0-1.204.05c-.393.033-.777.074-1.154.123-.36.066-.713.14-1.057.222a8.637 8.637 0 0 0-.983.296 7.877 7.877 0 0 0-.934.346c-.294.132-.573.28-.835.444-.262.148-.516.305-.762.47-.245.18-.467.37-.663.567a7.534 7.534 0 0 0-.614.642 6.856 6.856 0 0 0-.541.666c-.18.214-.344.453-.491.716-.132.247-.27.502-.418.765-.115.263-.221.534-.32.814a7.73 7.73 0 0 0-.294.864c-.083.296-.156.593-.222.889-.065.296-.122.6-.172.913a18.057 18.057 0 0 0-.196 1.9 9.722 9.722 0 0 0 0 .987v1.012l.098 1.037c.033.329.074.667.123 1.012.033.346.082.691.147 1.037.066.345.132.683.197 1.012l.246 1.037c.082.345.163.683.245 1.012.099.345.205.683.32 1.012.098.345.205.675.32.987.114.33.237.658.368.987l.393.938c.114.313.246.617.393.913.131.313.279.617.442.914l.443.84c.147.279.303.55.467.813.147.263.303.519.466.765.164.264.328.51.492.74.164.231.336.453.516.668l.491.641c.164.181.336.362.516.543.411.204.98.733 2.257.758 1.278.026 3.42-.866 4.11-1.168.692-.302 2.184-.825 3.315-.825 1.13 0 1.839.613 2.31.998.47.384 2.088 2.533 3.538 2.533 2.206-.045 3.475-.83 3.689-.994l.019-.017-.041.049a.316.316 0 0 0-.03.05.16.16 0 0 1-.074.073c-.05.083-.107.165-.172.247a.833.833 0 0 1-.197.222l-.197.247-.068.069-.153.153c-.065.066-.131.14-.196.222a5.755 5.755 0 0 1-.516.37 2.988 2.988 0 0 1-.54.345 5.073 5.073 0 0 1-.64.247 3.47 3.47 0 0 1-.712.173 4.51 4.51 0 0 1-.836.074 1.15 1.15 0 0 1-.221-.025.812.812 0 0 1-.197-.024.812.812 0 0 1-.196-.025l-.197-.05a.965.965 0 0 1-.196-.073.55.55 0 0 1-.172-.074.965.965 0 0 1-.197-.074.562.562 0 0 1-.172-.074 1.62 1.62 0 0 0-.172-.099.643.643 0 0 0-.172-.123l-.147-.099a1.623 1.623 0 0 1-.172-.098 3.238 3.238 0 0 0-.172-.124.634.634 0 0 1-.148-.148l-.933-.715a.93.93 0 0 0-.148-.124l-.147-.099a.958.958 0 0 1-.148-.123l-.147-.099a27.81 27.81 0 0 1-.11-.054l-.038-.02-.147-.073a1.359 1.359 0 0 0-.172-.074.623.623 0 0 1-.147-.074l-.148-.05a.726.726 0 0 0-.172-.024.676.676 0 0 0-.147-.025.726.726 0 0 0-.172-.025.548.548 0 0 0-.172.025.726.726 0 0 0-.172.025.73.73 0 0 0-.172.024l-.148.05c-.049.016-.106.033-.172.05a.645.645 0 0 1-.147.074c-.05.016-.107.04-.172.073a.625.625 0 0 1-.148.074.565.565 0 0 0-.147.099 1.623 1.623 0 0 0-.172.098l-1.425.89a1.229 1.229 0 0 0-.197.122l-.196.099a3.065 3.065 0 0 1-.443.222c-.065.032-.139.066-.22.099a1.369 1.369 0 0 0-.246.074.55.55 0 0 1-.246.098.903.903 0 0 0-.221.074 2.386 2.386 0 0 1-.27.074 7.39 7.39 0 0 0-.27.05 1.664 1.664 0 0 1-.271.024.934.934 0 0 1-.295.05 1.8 1.8 0 0 0-.295.025h-.32c-.54 0-1.08-.025-1.621-.075-.524-.049-1.04-.115-1.548-.196a39.371 39.371 0 0 1-1.499-.37c-.508-.132-1-.289-1.474-.47-.46-.18-.91-.378-1.352-.592a12.93 12.93 0 0 1-1.327-.716c-.442-.263-.86-.534-1.253-.814-.41-.28-.81-.584-1.204-.913a16.13 16.13 0 0 1-1.13-.988c-.36-.345-.713-.708-1.057-1.086-.344-.378-.68-.765-1.007-1.16a21.432 21.432 0 0 1-.934-1.21 56.207 56.207 0 0 1-.86-1.283 28.15 28.15 0 0 1-.786-1.332 18.52 18.52 0 0 1-.737-1.383c-.23-.46-.45-.93-.664-1.407-.196-.46-.384-.937-.565-1.43-.18-.495-.344-.988-.491-1.482a21.591 21.591 0 0 1-.443-1.456 92.992 92.992 0 0 1-.368-1.48 47.35 47.35 0 0 1-.492-2.963c-.049-.493-.082-.978-.098-1.456-.032-.477-.049-.954-.049-1.431 0-.46.008-.922.025-1.383.016-.463.057-.915.122-1.36.05-.444.107-.88.172-1.308.083-.428.18-.847.295-1.258.099-.412.214-.806.344-1.185.132-.395.287-.774.467-1.135.148-.362.32-.716.516-1.062.197-.329.402-.641.614-.938.213-.312.451-.608.713-.888.246-.263.508-.518.786-.765.279-.23.574-.453.885-.667.311-.197.639-.37.983-.518.328-.181.68-.33 1.056-.444.36-.115.738-.214 1.13-.296a6.746 6.746 0 0 1 1.008-.124c.328-.032.664-.05 1.008-.05h.59Zm23.392 30.335c.213 0 .418.025.615.074.213.032.401.09.565.172.18.066.36.156.54.272.148.115.295.238.443.37.131.148.254.304.368.469.115.164.205.337.27.518.083.181.14.37.173.568.049.197.073.403.073.617 0 .28-.032.55-.098.814-.082.263-.188.51-.32.74a4.03 4.03 0 0 1-.466.617 4.033 4.033 0 0 1-.615.47c-.229.131-.475.238-.737.32a3.323 3.323 0 0 1-.81.099c-.28 0-.55-.033-.811-.099a3.741 3.741 0 0 1-.738-.32 4.065 4.065 0 0 1-.614-.47 4.03 4.03 0 0 1-.467-.617 3.721 3.721 0 0 1-.32-.74 3.365 3.365 0 0 1-.097-.814c0-.28.033-.552.098-.815.082-.263.188-.51.32-.74a3.971 3.971 0 0 1 .466-.617c.105-.096.211-.187.32-.272.096-.07.195-.135.294-.197.23-.132.476-.239.738-.32.262-.067.532-.1.81-.1Zm6.162-31.16c3.161.457 6.17 2.146 7.688 4.811 1.014 1.763 1.36 3.94.747 6.44-1.892 7.323-10.533 11.65-12.446 19.098l-2.355-.373c-.051-4.889 2.665-8.543 5.312-12.283l.546-.775c1.992-2.851 3.831-5.804 4.281-9.436.41-3.4-1.756-5.518-4.062-5.926-2.349-.415-4.756.632-5.428 3.514-.352 1.676.544 4.46 3.353 4.688-.371 2.886-2.013 4.271-4.516 3.745-3.008-.607-4.138-3.817-3.703-6.563.79-4.984 5.565-7.649 10.583-6.94ZM30.794 33.701c1.01-.142 1.846-.131 1.932.478.085.609-.612 1.585-1.622 1.727-1.01.142-1.95-.604-2.036-1.213-.085-.61.716-.85 1.726-.992Zm-2.688-2.236a.864.864 0 0 1-.733.977.864.864 0 0 1-.974-.738.864.864 0 0 1 .733-.977.864.864 0 0 1 .974.738Zm6.402-.738a.864.864 0 0 1-.733.977.864.864 0 0 1-.974-.738.864.864 0 0 1 .733-.977.864.864 0 0 1 .974.738Zm-7.529.459a.216.216 0 0 0-.183.244.216.216 0 1 0 .183-.244Zm6.402-.738a.216.216 0 0 0-.183.244.216.216 0 1 0 .183-.244ZM20.814 4.265l.025.099.05.074.048.148.074.148c.032.033.065.09.098.173l.099.148c.049.066.09.14.122.222a.77.77 0 0 0 .148.197c.049.066.098.14.147.223.05.065.106.131.172.197.05.066.107.132.172.198a2.8 2.8 0 0 0 .393.37c.148.115.295.206.443.271-.082.148-.164.33-.246.543a6.072 6.072 0 0 0-.172.642c-.033.247-.05.502-.05.765-.015.28-.007.576.025.889.017.296.066.608.148.937.033.165.074.33.123.494.049.181.098.354.147.518.05.165.115.338.197.519.065.164.139.337.22.518.083.181.181.353.296.518.082.182.18.362.295.543.114.182.23.354.344.519l.393.543.467.518c.147.164.31.33.491.494l.516.518.59.494c.213.164.434.32.663.468.142.11.292.216.448.319l.238.149-.484-.25c-.32-.173-.633-.352-.939-.538-.442-.263-.86-.543-1.253-.84-.41-.312-.795-.633-1.155-.962a10.834 10.834 0 0 1-.958-.987 38.487 38.487 0 0 1-.836-1.062 13.59 13.59 0 0 1-.663-1.135 7.737 7.737 0 0 1-.54-1.185 6.452 6.452 0 0 1-.37-1.21 10.639 10.639 0 0 1-.22-1.258c-.05-.428-.074-.855-.074-1.283 0-.445.033-.889.098-1.333.066-.428.156-.872.27-1.333ZM30.825 4c3.692-.012 5.894 2.472 11.401 2.866 2.905 0 4.305-1.343 5.21-1.826h.024c-.416 1.508-2.055 4.172-5.21 4.665-5.41.553-7.712-.184-9.727.062-2.254.313-3.593 2.235-4.018 5.768-2.842-3.49-3.663-6.495-2.462-9.014C26.801 5.259 28.618 4 30.825 4Z"/></g></svg>