<svg xmlns="http://www.w3.org/2000/svg" width="50" height="25"><g fill="none" fill-rule="evenodd" stroke="#0271E3" stroke-linecap="round" stroke-linejoin="round"><path stroke-width=".5" d="M41.58 18.201a.363.363 0 0 0-.276-.352.366.366 0 0 0-.456.349.366.366 0 0 0 .731.003Z"/><path stroke-width=".5" d="M15.913 18.201a.302.302 0 0 0 .289.302c.009.003 5.977 0 5.99 0a.307.307 0 0 0 .185-.065.303.303 0 0 0 0-.473.307.307 0 0 0-.18-.066h-5.995a.303.303 0 0 0-.289.302ZM12.65 19.224a.306.306 0 0 1-.305-.302V17.48a.302.302 0 0 1 .31-.303.306.306 0 0 1 .3.287V18.922a.313.313 0 0 1-.028.126.306.306 0 0 1-.277.176ZM9.074 19.224a.306.306 0 0 1-.304-.302V17.48a.302.302 0 0 1 .31-.303.306.306 0 0 1 .298.287V18.922a.313.313 0 0 1-.027.126.306.306 0 0 1-.277.176ZM45.684 21.942 42.677 24H7.323l-3.006-2.058"/><path stroke-width=".5" d="M1 1h48v20.942H1z"/><path stroke-width=".5" d="M45.684 21.942H49V1H1v20.942h3.316L7.323 24h35.354l3.007-2.058Z"/></g></svg>