<svg xmlns="http://www.w3.org/2000/svg" width="43" height="50"><g fill="none" fill-rule="evenodd" stroke="#0271E3" stroke-linecap="round" stroke-linejoin="round"><path stroke-width=".5" d="M3.547 45.021V5.798M39.446 45.021V5.798"/><path stroke-width=".5" d="M24.463 25.037a2.353 2.353 0 0 1 .745-1.717c.128-.123.268-.234.42-.327a2.408 2.408 0 0 0-.947-.81 2.75 2.75 0 0 0-1.26-.262c-.467.016-.9.203-1.33.368-.291.111-.514.166-.814.07-.463-.147-.9-.394-1.397-.405-.473-.011-.95.13-1.351.375-.43.261-.777.643-1.008 1.088-.24.463-.356.981-.381 1.5a5.65 5.65 0 0 0 .165 1.593c.123.515.307 1.017.544 1.49a7 7 0 0 0 .871 1.32c.228.275.497.549.838.68.297.113.62.074.915-.029.236-.082.458-.2.7-.267.227-.063.466-.085.7-.07.24.016.467.08.687.17.207.086.409.184.63.226.274.053.559.031.814-.086.334-.155.592-.438.813-.724.327-.422.617-.872.84-1.357a6.086 6.086 0 0 0 .222-.559c.025-.073.045-.087-.025-.118a2.422 2.422 0 0 1-.56-.359 2.31 2.31 0 0 1-.831-1.79M21.508 21.806c.397.03.791-.11 1.117-.328.431-.288.752-.724.924-1.21.088-.248.135-.511.129-.775-.002-.051.007-.143-.03-.161-.034-.017-.132.012-.17.018a2.05 2.05 0 0 0-.361.095c-.488.174-.92.499-1.212.927-.263.388-.44.863-.407 1.336l.01.098ZM2.881 5.798v-3.13c0-.345-.02-.697.001-1.043a.668.668 0 0 1 .185-.423.675.675 0 0 1 .893-.06c.335.264.252.732.252 1.107V5.798M2.395 48.582c.16 0 .333-.04.422-.186.069-.113.064-.246.064-.373V45.3c0-.04-.03-.249 0-.278.013-.013.105 0 .123 0H4.09c.11 0 .122-.025.122.08v2.72c0 .314-.035.696.37.754a.822.822 0 0 0 .117.007"/><path stroke-width=".5" d="M1.007 48.989v-.287c0-.032-.013-.104.009-.12.035-.025.183 0 .224 0h4.607c.043 0 .194-.025.23 0 .02.015.01.067.01.099v.188c0 .017.012.105 0 .118-.017.017-.127.002-.152.002H1.007ZM1.007 45.02h40.761c.034 0 .196.022.218-.002.011-.013 0-.087 0-.103V6.06c0-.036.027-.234 0-.26-.032-.031-.25 0-.292 0H1.207c-.036 0-.18-.02-.2.006-.013.015 0 .094 0 .113V45.02ZM41.986 48.989v-.287c0-.03.013-.105-.008-.12-.035-.025-.184 0-.225 0H36.906c.012 0-.02.386.008.407.035.025.185 0 .226 0h4.846Z"/><path stroke-width=".5" d="M40.598 48.582c-.16 0-.333-.04-.422-.186-.068-.113-.064-.246-.064-.373V45.3c0-.04.03-.249 0-.278-.013-.013-.105 0-.123 0H38.903c-.11 0-.122-.025-.122.08v2.72c0 .314.036.696-.37.754a.823.823 0 0 1-.117.007M40.112 5.798v-3.13c0-.345.02-.697-.001-1.043a.668.668 0 0 0-.185-.423.675.675 0 0 0-.892-.06c-.336.264-.253.732-.253 1.107V5.798"/><path stroke-width=".5" d="M40.112 5.798h1.815c.011 0 .052-.006.06.002.005.005-.002.04 0 .047.03.268 0 .557 0 .826v38.28c0 .01.006.054 0 .062-.023.027-.181.006-.218.006h-1.35c-.076 0-.2-.025-.273 0-.047.015-.02-.014-.034.033-.017.06 0 .147 0 .208v2.582c0 .174-.031.392.063.55.112.187.333.188.526.188h.88c.116 0 .235-.007.35 0 .09.006.055.05.055.143 0 .045.026.238-.005.264-.012.01-.083 0-.1 0H36.908c.007 0-.019-.386.017-.407.038-.022.156 0 .2 0h.329c.307 0 .629.03.935-.004.146-.016.283-.08.348-.218.052-.112.045-.237.045-.356v-2.567c0-.113.028-.269 0-.38-.006-.023.005-.026-.008-.036-.021-.016-.116 0-.14 0H4.456c-.063 0-.141-.013-.204 0-.062.012-.04.008-.04.094v2.545c0 .185-.02.383.007.567.058.393.46.355.764.355h1.007c.02 0 .084-.009.096.005.025.029.013.386-.008.402-.031.022-.167 0-.204 0H1.09c-.084 0-.082.015-.082-.078v-.174c0-.027-.016-.12 0-.143.015-.02.056-.012.09-.012H2.34c.125 0 .255-.004.364-.073.134-.084.173-.232.176-.38.018-.74 0-1.482 0-2.222v-.593c0-.048.032-.248 0-.287-.024-.03-.2-.006-.243-.006h-1.37c-.036 0-.235.027-.26 0-.01-.01 0-.075 0-.088V6.003c0-.048-.016-.126 0-.173.001-.006-.005-.026 0-.03.019-.02.156-.002.185-.002h1.604c.012 0 .076.009.084 0 .02-.02 0-.155 0-.181V1.878c0-.139-.011-.283.032-.418a.668.668 0 0 1 1.088-.283c.173.16.212.37.212.598v3.724c0 .05-.03.273.01.3.022.016.116 0 .144 0h34.176c.06 0 .14.013.2 0 .056-.013.038-.004.038-.084V2.02c0-.155-.018-.324.011-.478a.668.668 0 0 1 1.074-.394.69.69 0 0 1 .246.553c.003.772 0 1.544 0 2.316v1.782Z"/></g></svg>