<svg xmlns="http://www.w3.org/2000/svg" width="50" height="36"><g fill="none" fill-rule="evenodd" stroke="#0271E3" stroke-linecap="round" stroke-linejoin="round"><path stroke-width=".5" d="M26.728 17.605a1.386 1.386 0 0 1 .407-.984 1.44 1.44 0 0 1 .264-.214 1.476 1.476 0 0 0-1.243-.629c-.277.002-.534.115-.789.214-.15.059-.279.1-.436.055-.272-.077-.518-.229-.805-.247a1.386 1.386 0 0 0-.707.156c-.499.255-.797.763-.882 1.311-.1.65.05 1.335.313 1.928.13.291.296.559.486.813.144.191.31.39.532.491a.685.685 0 0 0 .448.032c.147-.034.28-.107.422-.159.135-.05.276-.074.42-.074.14 0 .276.025.408.075.132.05.258.12.396.152a.778.778 0 0 0 .434-.016c.201-.07.359-.228.49-.392a4.016 4.016 0 0 0 .61-1.048 3.02 3.02 0 0 0 .04-.109c.005-.015.016-.038.017-.055.003-.035.011-.014-.011-.035-.035-.032-.102-.05-.144-.076a1.484 1.484 0 0 1-.172-.123 1.363 1.363 0 0 1-.498-1.066M25.026 15.711c.229.018.456-.064.644-.192a1.422 1.422 0 0 0 .606-1.163c0-.028.004-.084-.015-.095-.018-.01-.076.007-.096.01a1.427 1.427 0 0 0-.91.6c-.151.227-.253.506-.234.783a.9.9 0 0 0 .005.057Z"/><path stroke-width=".5" d="M1 33.319a1.7 1.7 0 0 0 .83 1.457c.275.16.577.224.89.224h44.616c.5-.003.981-.23 1.296-.627.25-.315.367-.7.367-1.102V3.026c0-.136.004-.274-.002-.41a1.697 1.697 0 0 0-.886-1.423A1.764 1.764 0 0 0 47.268 1H2.66a1.669 1.669 0 0 0-1.334.68C1.1 1.988 1 2.355 1 2.737V33.32Z"/></g></svg>