<svg xmlns="http://www.w3.org/2000/svg" width="50" height="36"><g fill="none" fill-rule="evenodd" stroke="#0271E3" stroke-linecap="round" stroke-linejoin="round"><path stroke-width=".5" d="M25.028 15.492c.216.017.433-.044.622-.147.27-.143.487-.374.63-.642.14-.263.216-.566.183-.864-.204.009-.403.078-.583.172-.24.127-.45.31-.598.538-.18.276-.297.61-.254.943ZM26.993 17.65c-.003-.236.05-.474.154-.685.138-.278.358-.516.62-.68a1.586 1.586 0 0 0-.455-.444 1.755 1.755 0 0 0-.856-.268 1.548 1.548 0 0 0-.628.087c-.194.06-.422.17-.618.224a.512.512 0 0 1-.132.018.976.976 0 0 1-.3-.074l-.294-.114a1.815 1.815 0 0 0-.474-.12 1.596 1.596 0 0 0-.58.072 1.776 1.776 0 0 0-.865.606 2.03 2.03 0 0 0-.342.68c-.134.46-.127.953-.045 1.422.098.546.295 1.078.581 1.554.143.228.303.455.48.659.156.175.341.342.573.403a.851.851 0 0 0 .422-.013c.118-.028.274-.1.386-.146.249-.105.524-.14.79-.094.162.025.33.102.48.166a1.3 1.3 0 0 0 .259.082.917.917 0 0 0 .42-.013c.344-.103.576-.408.777-.688.25-.342.457-.721.59-1.123l.02-.06-.013-.005a1.637 1.637 0 0 1-.743-.661 1.573 1.573 0 0 1-.207-.785"/><path stroke-width=".5" d="M1.016 33.445a1.538 1.538 0 0 0 1.43 1.533c.032.066 44.957-.04 45.017.003a1.538 1.538 0 0 0 1.535-1.536V2.514l-.001-.027-.001-.026-.002-.027-.002-.026a1.56 1.56 0 0 0-.251-.718 1.54 1.54 0 0 0-1.252-.685c-.027-.015-44.932.01-44.964 0h-.027l-.026.002-.027.001-.026.002-.026.003A1.537 1.537 0 0 0 1.018 2.46c-.055.045.036 30.925-.002 30.984Z"/><path stroke-width=".5" d="M1.016 33.445a1.54 1.54 0 0 0 .882 1.39 1.541 1.541 0 0 0 .619.146c.01.011 44.927-.007 44.946 0a1.535 1.535 0 0 0 1.535-1.536c.006-.03-.004-30.91 0-30.938-.002-.034-.003-.071-.006-.104a1.538 1.538 0 0 0-1.512-1.398c-.062.011-44.908-.009-44.963 0-.039.002-.082.003-.121.008a1.54 1.54 0 0 0-1.31 1.07 1.561 1.561 0 0 0-.07.424c-.032.017.023 30.914 0 30.938Z"/></g></svg>