<svg xmlns="http://www.w3.org/2000/svg" width="50" height="36"><g fill="none" fill-rule="evenodd" stroke="#0271E3" stroke-linecap="round" stroke-linejoin="round"><path stroke-width=".5" d="M25.022 15.464a1.14 1.14 0 0 0 .624-.147c.274-.147.495-.384.639-.66.135-.26.207-.557.175-.85-.205.01-.404.078-.584.173a1.604 1.604 0 0 0-.59.524c-.186.28-.308.621-.264.96ZM26.99 17.627c-.003-.237.05-.475.154-.687.139-.279.358-.517.621-.681a1.589 1.589 0 0 0-.456-.445 1.759 1.759 0 0 0-.857-.269 1.545 1.545 0 0 0-.629.087c-.194.06-.423.171-.619.224a.504.504 0 0 1-.132.019.974.974 0 0 1-.3-.074l-.295-.115a1.813 1.813 0 0 0-.474-.12 1.596 1.596 0 0 0-.58.073c-.324.1-.615.3-.83.561-.17.204-.293.445-.37.699-.144.469-.138.973-.055 1.453.1.548.296 1.081.582 1.558.153.243.322.484.514.697.146.158.319.306.53.365.142.04.293.025.434-.01.117-.029.273-.101.386-.147.247-.105.525-.14.79-.095.163.026.33.102.48.167.222.097.478.137.71.06.33-.113.553-.407.75-.68.248-.343.456-.723.59-1.126l.019-.06-.013-.005a1.639 1.639 0 0 1-.744-.663 1.58 1.58 0 0 1-.206-.786"/><path stroke-width=".5" d="M1.028 33.321a1.661 1.661 0 0 0 1.542 1.656c.037.069 44.706-.042 44.771.004a1.662 1.662 0 0 0 1.656-1.66c.007-.025-.003-30.659 0-30.683V2.61l-.001-.029-.002-.028-.002-.029a1.667 1.667 0 0 0-1.063-1.408 1.66 1.66 0 0 0-.559-.108c-.225.044-44.626-.04-44.828.006a1.66 1.66 0 0 0-1.479 1.312c-.016.083-.029.17-.033.255-.092.03.062 30.69-.002 30.74Z"/><path stroke-width=".5" d="M1.028 33.321a1.663 1.663 0 0 0 .952 1.502 1.66 1.66 0 0 0 .668.157c.024.002 44.663 0 44.694 0a1.652 1.652 0 0 0 1.42-.805c.154-.256.236-.555.236-.854.006-.014-.004-30.659 0-30.673-.001-.042-.002-.088-.007-.13a1.69 1.69 0 0 0-.263-.76 1.661 1.661 0 0 0-1.368-.75c-.058.006-44.66-.006-44.712 0A1.659 1.659 0 0 0 1.03 2.593c-.053.041.034 30.674-.002 30.728Z"/></g></svg>