<svg data-v-51ca4166="" xmlns="http://www.w3.org/2000/svg" version="1.1">
    <svg
        data-v-51ca4166="" x="0" y="0" width="1mm"
        height="1mm" overflow="visible" viewBox="0 0 1 1"
    >
        <path
            data-v-51ca4166=""
            id="svg-bleed"
            transform="translate(-5,-5)" stroke-width="1.25"
            stroke="#000000" fill="none" d=" M132,600  L51,600  L51,537.5  L3.75,537.5  L3.75,493.5  L0,492  L0,455  L3.75,453.5  L3.75,413.5  L0,412  L0,375  L3.75,373.5  L3.75,327.5  L50,327.5  L50,266.5  L73,266.5  L73,71  L92,71  Q79,71,79,58  A52,55.5 0 0,1 131,2.5  L133.5,0  L448.5,0  L451,2.5  A52,55.5 0 0,1 503,58  Q503,71,490,71  L509,71  L509,266.5  L532,266.5  L532,327.5  L578.25,327.5  L578.25,373.5  L582,375  L582,412  L578.25,413.5  L578.25,453.5  L582,455  L582,492  L578.25,493.5  L578.25,537.5  L531,537.5  L531,542.5  L531,600  L450,600  L132,600 " style="">
        </path>
        <g data-v-51ca4166="">
            <path data-v-51ca4166="" stroke-width="1.25" stroke="#000000" fill="none" d=" M131,61  L92,61  Q79,61,79,48  A52,45.5 0 0,1 131,2.5  L133.5,0  L438.5,0  L441,2.5  A52,45.5 0 0,1 493,48  Q493,61,480,61  L441,61  L439.5,61  Q438.5,61,438.5,62  Q438.5,62.70020753820971,439.15797985667433,62.939692620785905  L489.13030214988504,81.12813047267197  Q499,84.72040671131495,499,95.22351978446059  L499,232.2764802155394  Q499,242.77959328868505,489.13030214988504,246.37186952732804  L439.15797985667433,264.56030737921407  Q438.5,264.7997924617903,438.5,265.5  Q438.5,266.5,439.5,266.5  L441,266.5  L522,266.5  L522,324.5  L442.5,324.5  L442.5,324.5  Q441,324.5,441,326  Q441,327.5,442.5,327.5  L442.5,327.5  L504.5,327.5  L508.5,329.5  L568.25,329.5  L568.25,368.5  L572,370  L572,407  L568.25,408.5  L568.25,448.5  L572,450  L572,487  L568.25,488.5  L568.25,527.5  L508.5,527.5  L504.5,529.5  L442.5,529.5  L441.5,529.5  Q440,529.5,440,531  Q440,532.5,441.5,532.5  L442.5,532.5  L521,532.5  L521,590  L440,590  L51,590  L51,532.5  L129.5,532.5  L130.5,532.5  Q132,532.5,132,531  Q132,529.5,130.5,529.5  L67.5,529.5  L63.5,527.5  L3.75,527.5  L3.75,488.5  L0,487  L0,450  L3.75,448.5  L3.75,408.5  L0,407  L0,370  L3.75,368.5  L3.75,329.5  L63.5,329.5  L67.5,327.5  L129.5,327.5  L129.5,327.5  Q131,327.5,131,326  Q131,324.5,129.5,324.5  L129.5,324.5  L50,324.5  L50,266.5  L131,266.5  L132.5,266.5  Q133.5,266.5,133.5,265.5  Q133.5,264.7997924617903,132.84202014332567,264.56030737921407  L82.86969785011497,246.37186952732804  Q73,242.77959328868505,73,232.2764802155394  L73,95.22351978446059  Q73,84.72040671131495,82.86969785011497,81.12813047267197  L132.84202014332567,62.939692620785905  Q133.5,62.70020753820971,133.5,62  Q133.5,61,132.5,61  L131,61  Z " class="svg-cutting">
            </path>
        </g>
        <g data-v-51ca4166="">
            <g data-v-51ca4166="">
                <line data-v-51ca4166="" stroke-width="1.25" stroke="#000000" stroke-dasharray="3.75 2.5" x1="131" y1="2.5" x2="131" y2="61">
                </line>
                <!---->
            </g>
            <g data-v-51ca4166="">
                <line data-v-51ca4166="" stroke-width="1.25" stroke="#000000" stroke-dasharray="3.75 2.5" x1="441" y1="2.5" x2="441" y2="61">
                </line>
                <!---->
            </g>
            <g data-v-51ca4166="">
                <line data-v-51ca4166="" stroke-width="1.25" stroke="#000000" stroke-dasharray="3.75 2.5" x1="438.5" y1="62" x2="133.5" y2="62">
                </line>
                <!---->
            </g>
            <g data-v-51ca4166="">
                <line data-v-51ca4166="" stroke-width="1.25" stroke="#000000" stroke-dasharray="3.75 2.5" x1="133.5" y1="62" x2="133.5" y2="265.5">
                </line>
                <!---->
            </g>
            <g data-v-51ca4166="">
                <line data-v-51ca4166="" stroke-width="1.25" stroke="#000000" stroke-dasharray="3.75 2.5" x1="438.5" y1="62" x2="438.5" y2="265.5">
                </line>
                <!---->
            </g>
            <g data-v-51ca4166="">
                <line data-v-51ca4166="" stroke-width="1.25" stroke="#000000" stroke-dasharray="3.75 2.5" x1="438.5" y1="265.5" x2="133.5" y2="265.5">
                </line>
                <!---->
            </g>
            <g data-v-51ca4166="">
                <line data-v-51ca4166="" stroke-width="1.25" stroke="#000000" stroke-dasharray="3.75 2.5" x1="131" y1="326" x2="131" y2="266.5">
                </line>
                <!---->
            </g>
            <g data-v-51ca4166="">
                <line data-v-51ca4166="" stroke-width="1.25" stroke="#000000" stroke-dasharray="3.75 2.5" x1="441" y1="266.5" x2="441" y2="326">
                </line>
                <!---->
            </g>
            <g data-v-51ca4166="">
                <line data-v-51ca4166="" stroke-width="1.25" stroke="#000000" stroke-dasharray="3.75 2.5" x1="442.5" y1="327.5" x2="129.5" y2="327.5">
                </line>
                <!---->
            </g>
            <g data-v-51ca4166="">
                <line data-v-51ca4166="" stroke-width="1.25" stroke="#000000" stroke-dasharray="3.75 2.5" x1="440" y1="531" x2="440" y2="590">
                </line>
                <!---->
            </g>
            <g data-v-51ca4166="">
                <line data-v-51ca4166="" stroke-width="1.25" stroke="#000000" stroke-dasharray="3.75 2.5" x1="130.5" y1="529.5" x2="441.5" y2="529.5">
                </line>
                <!---->
            </g>
            <g data-v-51ca4166="">
                <line data-v-51ca4166="" stroke-width="1.25" stroke="#000000" stroke-dasharray="3.75 2.5" x1="132" y1="590" x2="132" y2="531">
                </line>
                <!---->
            </g>
            <g data-v-51ca4166="">
                <line data-v-51ca4166="" stroke-width="1.25" stroke="#000000" stroke-dasharray="3.75 2.5" x1="63.5" y1="527.5" x2="63.5" y2="329.5">
                </line>
                <!---->
            </g>
            <g data-v-51ca4166="">
                <line data-v-51ca4166="" stroke-width="1.25" stroke="#000000" stroke-dasharray="3.75 2.5" x1="67.5" y1="327.5" x2="67.5" y2="529.5">
                </line>
                <!---->
            </g>
            <g data-v-51ca4166="">
                <line data-v-51ca4166="" stroke-width="1.25" stroke="#000000" stroke-dasharray="3.75 2.5" x1="508.5" y1="329.5" x2="508.5" y2="527.5">
                </line>
                <!---->
            </g>
            <g data-v-51ca4166="">
                <line data-v-51ca4166="" stroke-width="1.25" stroke="#000000" stroke-dasharray="3.75 2.5" x1="504.5" y1="529.5" x2="504.5" y2="327.5">
                </line>
                <!---->
            </g>
            <g data-v-51ca4166="">
                <line data-v-51ca4166="" stroke-width="1.25" stroke="#000000" stroke-dasharray="3.75 2.5" x1="442.5" y1="327.5" x2="442.5" y2="368.5">
                </line>
                <!---->
            </g>
            <g data-v-51ca4166="">
                <line data-v-51ca4166="" stroke-width="1.25" stroke="#000000" stroke-dasharray="3.75 2.5" x1="442.5" y1="408.5" x2="442.5" y2="448.5">
                </line>
                <!---->
            </g>
            <g data-v-51ca4166="">
                <line data-v-51ca4166="" stroke-width="1.25" stroke="#000000" stroke-dasharray="3.75 2.5" x1="442.5" y1="488.5" x2="442.5" y2="529.5">
                </line>
                <!---->
            </g>
            <g data-v-51ca4166="">
                <line data-v-51ca4166="" stroke-width="1.25" stroke="#000000" stroke-dasharray="3.75 2.5" x1="129.5" y1="529.5" x2="129.5" y2="488.5">
                </line>
                <!---->
            </g>
            <g data-v-51ca4166="">
                <line data-v-51ca4166="" stroke-width="1.25" stroke="#000000" stroke-dasharray="3.75 2.5" x1="129.5" y1="448.5" x2="129.5" y2="408.5">
                </line>
                <!---->
            </g>
            <g data-v-51ca4166="">
                <line data-v-51ca4166="" stroke-width="1.25" stroke="#000000" stroke-dasharray="3.75 2.5" x1="129.5" y1="368.5" x2="129.5" y2="327.5">
                </line>
                <!---->
            </g>
        </g>
        <g data-v-51ca4166="">
            <path data-v-51ca4166="" stroke-width="1.25" stroke="#000000" d=" M129.5,368.5  L133.5,368.5  L133.5,408.5  L129.5,408.5  L129.5,368.5 " style="fill: rgb(255, 255, 255);">
            </path>
            <path data-v-51ca4166="" stroke-width="1.25" stroke="#000000" d=" M442.5,368.5  L438.5,368.5  L438.5,408.5  L442.5,408.5  L442.5,368.5 " style="fill: rgb(255, 255, 255);">
            </path>
            <path data-v-51ca4166="" stroke-width="1.25" stroke="#000000" d=" M129.5,448.5  L133.5,448.5  L133.5,488.5  L129.5,488.5  L129.5,448.5 " style="fill: rgb(255, 255, 255);">
            </path>
            <path data-v-51ca4166="" stroke-width="1.25" stroke="#000000" d=" M442.5,448.5  L438.5,448.5  L438.5,488.5  L442.5,488.5  L442.5,448.5 " style="fill: rgb(255, 255, 255);">
            </path>
        </g>
    </svg>
</svg>
