<svg xmlns="http://www.w3.org/2000/svg" xmlns:xlink="http://www.w3.org/1999/xlink" width="24" height="68" version="1.1" viewBox="0 0 24 68"><title>编组 10备份 4</title><defs><rect id="path-1" width="24" height="68" x="0" y="0"/><path id="path-3" d="M2.62247183,4.45692879 L11.8277152,9.57095287 C15.6372974,11.6873874 18,15.7028347 18,20.0608402 L18,43.9391598 C18,48.2971653 15.6372974,52.3126126 11.8277152,54.4290471 L2.62247183,59.5430712 C1.00386181,60.442299 -2.2675846e-16,62.1483767 0,64 L0,64 L0,64 L0,0 C2.2675846e-16,1.85162334 1.00386181,3.55770101 2.62247183,4.45692879 Z"/><filter id="filter-4" width="172.2%" height="120.3%" x="-30.6%" y="-10.2%" filterUnits="objectBoundingBox"><feOffset dx="1" dy="0" in="SourceAlpha" result="shadowOffsetOuter1"/><feGaussianBlur in="shadowOffsetOuter1" result="shadowBlurOuter1" stdDeviation="2"/><feColorMatrix in="shadowBlurOuter1" type="matrix" values="0 0 0 0 0 0 0 0 0 0 0 0 0 0 0 0 0 0 0.0378059441 0"/></filter></defs><g id="UI设计规范-样式/组件" fill="none" fill-rule="evenodd" stroke="none" stroke-width="1"><g id="编辑器-整体框架" transform="translate(-473.000000, -416.000000)"><g id="编组-10备份-4" transform="translate(485.000000, 450.000000) scale(-1, 1) translate(-485.000000, -450.000000) translate(473.000000, 416.000000)"><mask id="mask-2" fill="#fff"><use xlink:href="#path-1"/></mask><g id="编组-10备份-3" mask="url(#mask-2)"><g transform="translate(0.000000, 2.000000)"><g id="矩形" stroke="none"><use fill="#000" fill-opacity="1" filter="url(#filter-4)" xlink:href="#path-3"/><use fill="#FFF" fill-rule="evenodd" xlink:href="#path-3"/></g><polyline id="路径" stroke="#666" stroke-linecap="round" stroke-linejoin="round" stroke-width="1" points="13 35 7 35 7 29" transform="translate(10.000000, 32.000000) rotate(-315.000000) translate(-10.000000, -32.000000)"/></g></g></g></g></g></svg>